<?xml version="1.0" encoding="utf-8"?>
<!-- Generator: Adobe Illustrator 17.0.0, SVG Export Plug-In . SVG Version: 6.00 Build 0)  -->
<!DOCTYPE svg PUBLIC "-//W3C//DTD SVG 1.0//EN" "http://www.w3.org/TR/2001/REC-SVG-20010904/DTD/svg10.dtd">
<svg version="1.0" id="Layer_1" xmlns="http://www.w3.org/2000/svg" xmlns:xlink="http://www.w3.org/1999/xlink" x="0px" y="0px"
	 width="800px" height="550px" viewBox="0 0 800 550" style="enable-background:new 0 0 800 550;" xml:space="preserve">
<rect x="0.2" y="300.8" style="fill:#FFFFFF;" width="800" height="236.8"/>
<g>
	<defs>
		<rect id="SVGID_1_" x="-0.5" y="-587.8" width="800.3" height="1138.2"/>
	</defs>
	<clipPath id="SVGID_2_">
		<use xlink:href="#SVGID_1_"  style="overflow:visible;"/>
	</clipPath>
	
		<linearGradient id="SVGID_3_" gradientUnits="userSpaceOnUse" x1="-1612.192" y1="111.6799" x2="-1612.192" y2="468.6262" gradientTransform="matrix(1 0 0 1 2011.8231 0)">
		<stop  offset="0" style="stop-color:#572E90"/>
		<stop  offset="0.2738" style="stop-color:#57589B"/>
		<stop  offset="0.9062" style="stop-color:#54B2B3"/>
		<stop  offset="1" style="stop-color:#52C2B6"/>
	</linearGradient>
	<polygon style="clip-path:url(#SVGID_2_);fill:url(#SVGID_3_);" points="818.1,568.1 -18.9,568.1 -18.9,444.2 818.1,103.9 	"/>
</g>
<defs>
	<filter id="Adobe_OpacityMaskFilter" filterUnits="userSpaceOnUse" x="317.8" y="91" width="260.9" height="430.1">
		<feFlood  style="flood-color:white;flood-opacity:1" result="back"/>
		<feBlend  in="SourceGraphic" in2="back" mode="normal"/>
	</filter>
</defs>
<mask maskUnits="userSpaceOnUse" x="317.8" y="91" width="260.9" height="430.1" id="SVGID_4_">
	<g style="filter:url(#Adobe_OpacityMaskFilter);">
		<defs>
			<filter id="Adobe_OpacityMaskFilter_1_" filterUnits="userSpaceOnUse" x="317.8" y="91" width="260.9" height="430.1">
				<feFlood  style="flood-color:white;flood-opacity:1" result="back"/>
				<feBlend  in="SourceGraphic" in2="back" mode="normal"/>
			</filter>
		</defs>
		<mask maskUnits="userSpaceOnUse" x="317.8" y="91" width="260.9" height="430.1" id="SVGID_4_">
			<g style="filter:url(#Adobe_OpacityMaskFilter_1_);">
			</g>
		</mask>
		
			<linearGradient id="SVGID_5_" gradientUnits="userSpaceOnUse" x1="238.5257" y1="1538.2579" x2="481.0755" y2="1538.2579" gradientTransform="matrix(0.9991 -4.231045e-02 -4.231045e-02 -0.9991 153.8255 1858.1321)">
			<stop  offset="0" style="stop-color:#000000"/>
			<stop  offset="1" style="stop-color:#FFFFFF"/>
		</linearGradient>
		<path style="mask:url(#SVGID_4_);fill:url(#SVGID_5_);" d="M566.3,227.7l-0.6,0l0.3-0.5L318.6,91l-0.3,0.5l-0.6,0l12.4,292.9
			l0.6,0l-0.3,0.5l247.4,136.2l0.3-0.5l0.6,0L566.3,227.7z M551.9,484.9l0.9,21l-23.6-13l-0.9-21.7L528,465l23.6,13L551.9,484.9z
			 M551.3,470.4l0.3,6.2l-5.3-2.9l0,0l-12.5-6.9h0l-5.8-3.2l-0.3-6.9L527,442l-0.3-6.2l17.8,9.8l0,0l5.8,3.2l0.3,6.9L551.3,470.4z
			 M550,441.1l0.3,6.2l-17.8-9.8h0l-5.8-3.2l-0.3-6.9l-0.6-14.8l-0.3-6.2l17.8,9.8l0,0l5.8,3.2l0.3,6.9L550,441.1z M548.8,411.9
			l0.3,6.2l-17.8-9.8l0,0l-5.8-3.2l-0.3-6.9l-0.6-14.8l-0.3-6.2L542,387l-0.3,0.5l5.6,3.1l0.3,6.6l0.6,0L548.8,411.9z M546.9,367.8
			l0.6,14.8l-0.6,0l0.2,5.2l-4.4-2.4l-0.3,0.5l-12.5-6.9h0l-5.8-3.2l-0.3-6.9l-0.6-14.8l-0.3-6.2l17.8,9.8l0,0l5.8,3.2L546.9,367.8z
			 M546.3,353.3l0.3,6.2l-17.8-9.8h0l-5.8-3.2l-0.3-6.9l-0.6-14.8l-0.3-6.2l5.3,2.9l0,0l12.5,6.9l0,0l5.8,3.2l0.3,6.9L546.3,353.3z
			 M545.1,324l0.3,6.2l-23.6-13l-0.3-6.9l-0.6-14.8l-0.3-6.2l23.6,13l0.3,6.9L545.1,324z M543.8,294.7l0.3,6.2l-5.3-2.9l0,0
			l-12.5-6.9l0,0l-5.8-3.2l-0.3-6.9l-0.6-14.8l-0.3-6.2l23.6,13l0.3,6.9L543.8,294.7z M542.6,265.4l0.3,6.2l-5.3-2.9l0,0l-12.5-6.9
			l0,0l-5.8-3.2l-0.3-6.9l-0.6-14.8l-0.3-6.2l17.8,9.8l0,0l5.8,3.2l0.3,6.9L542.6,265.4z M362.6,145.2L362.6,145.2l5.8,3.2l0.3,6.9
			l0.6,14.8l0.3,6.2l-17.8-9.8l0,0l-5.8-3.2l-0.3-6.9l-0.6-14.8l-0.3-6.2L362.6,145.2z M346.4,170.9l-0.3-6.2l17.8,9.8l0,0l5.8,3.2
			l0.3,6.9l0.6,14.8l0.3,6.2l-17.8-9.8l0,0l-5.8-3.2l-0.3-6.9L346.4,170.9z M347.6,200.2l-0.3-6.2l17.8,9.8h0l5.8,3.2l0.3,6.9
			l0.6,14.8l0.3,6.2l-5.3-2.9l0,0l-12.5-6.9l0.3-0.5l-5.6-3.1l-0.3-6.6l-0.6,0L347.6,200.2z M349.5,244.3l-0.6-14.8l0.6,0l-0.2-5.2
			l4.4,2.4l0.3-0.5l18.3,10.1l0.3,6.9l0.6,14.8l0.3,6.2l-23.6-13L349.5,244.3z M350.1,258.8l-0.3-6.2l5.3,2.9l0,0l12.5,6.9h0
			l5.8,3.2l0.3,6.9l0.6,14.8l0.3,6.2l-23.6-13l-0.3-6.9L350.1,258.8z M351.4,288.1l-0.3-6.2l5.3,2.9l0,0l12.5,6.9l0,0l5.8,3.2
			l0.3,6.9l0.6,14.8l0.3,6.2l-17.8-9.8l0,0l-5.8-3.2l-0.3-6.9L351.4,288.1z M352.6,317.3l-0.3-6.2l17.8,9.8h0l5.8,3.2l0.3,6.9
			l0.6,14.8l0.3,6.2l-17.8-9.8l0,0l-5.8-3.2l-0.3-6.9L352.6,317.3z M353.8,346.6l-0.3-6.2l17.8,9.8h0l5.8,3.2l0.3,6.9l0.6,14.8
			l0.3,6.2l-17.8-9.8l0,0l-5.8-3.2l-0.3-6.9L353.8,346.6z M405.4,396.2l-1.2-0.7l-0.3-6.9l-0.6-14.8l-0.3-6.2l0.6,0.3l4.7,2.6l0,0
			l18.3,10.1l0.3,6.9l0.6,14.8l0.3,6.2l-5.3-2.9l0,0L405.4,396.2z M481.1,437.9l-2.7-1.5l-0.3-6.9l-0.6-14.8l-0.3-6.2l5.3,2.9l0,0
			l18.3,10.1l0.3,6.9l0.6,14.8l0.3,6.2l-5.3-2.9l0,0L481.1,437.9z M509.1,453.3L509.1,453.3l-5.8-3.2l-0.3-6.9l-0.6-14.8l-0.3-6.2
			l23.6,13l0.3,6.9l0.6,14.8l0.3,6.2l-5.3-2.9l0,0L509.1,453.3z M525.3,427.5l0.3,6.2l-5.3-2.9l0,0l-12.5-6.9l0,0l-5.8-3.2l-0.3-6.9
			l-0.6-14.8l-0.3-6.2l5.3,2.9l0,0l18.3,10.1l0.3,6.9L525.3,427.5z M524.1,398.2l0.3,6.2l-5.3-2.9l0,0l-18.3-10.1l-0.3-6.9
			l-0.6-14.8l-0.3-6.2l5.3,2.9l0,0l18.3,10.1l0.3,6.9L524.1,398.2z M522.8,369l0.3,6.2l-5.3-2.9l0,0l-18.3-10.1l-0.3-6.9l-0.6-14.8
			l-0.3-6.2l5.3,2.9l0,0l18.3,10.1l0.3,6.9L522.8,369z M521.6,339.7l0.3,6.2l-5.3-2.9l0,0l-18.3-10.1L498,326l-0.6-14.8l-0.3-6.2
			l5.3,2.9l0,0l15.8,8.7l2.5,1.4l0.3,6.9L521.6,339.7z M520.3,310.4l0.3,6.2l-1.9-1.1l-3.4-1.8l0,0L497,303.6l-0.3-6.9l-0.6-14.8
			l-0.3-6.2l23.6,13l0.3,6.9L520.3,310.4z M519.1,281.1l0.3,6.2l-5.3-2.9l0,0l-12.5-6.9l0,0l-5.8-3.2l-0.3-6.9l-0.6-14.8l-0.3-6.2
			l23.6,13l0.3,6.9L519.1,281.1z M493.4,245.8l0.3,6.9l0.6,14.8l0.3,6.2l-5.3-2.9l0,0l-12.5-6.9l0,0l-5.8-3.2l-0.3-6.9l-0.6-14.8
			l-0.3-6.2l2.1,1.1l3.2,1.8l0,0L493.4,245.8z M419.2,204.9l0.3,6.9l0.6,14.8l0.3,6.2l-5.3-2.9l0,0l-12.5-6.9l0,0l-5.8-3.2l-0.3-6.9
			l-0.6-14.8l-0.3-6.2l0.6,0.3l4.7,2.6l0,0L419.2,204.9z M394.5,191.3l0.3,6.9l0.6,14.8l0.3,6.2l-5.3-2.9l0,0l-18.3-10.1l-0.3-6.9
			l-0.6-14.8l-0.3-6.2l5.3,2.9l0,0L394.5,191.3z M372.4,213.8l-0.3-6.2l5.3,2.9l0,0l18.3,10.1l0.3,6.9l0.6,14.8l0.3,6.2l-5.3-2.9
			l0,0l-15.8-8.7l-2.5-1.4l-0.3-6.9L372.4,213.8z M373.6,243.1l-0.3-6.2l1.9,1.1l3.4,1.8l0,0l18.3,10.1l0.3,6.9l0.6,14.8l0.3,6.2
			l-23.6-13l-0.3-6.9L373.6,243.1z M374.9,272.4l-0.3-6.2l5.3,2.9l0,0l12.5,6.9l0,0l5.8,3.2l0.3,6.9l0.6,14.8l0.3,6.2l-23.6-13
			l-0.3-6.9L374.9,272.4z M376.1,301.7l-0.3-6.2l5.3,2.9l0,0l12.5,6.9l0,0l5.8,3.2l0.3,6.9l0.6,14.8l0.3,6.2l-23.6-13l-0.3-6.9
			L376.1,301.7z M377.3,331l-0.3-6.2l5.3,2.9l0,0l12.5,6.9l0,0l5.8,3.2l0.3,6.9l0.6,14.8l0.3,6.2l-5.3-2.9l0,0l-18.3-10.1l-0.3-6.9
			L377.3,331z M404.2,366.9l-1.2-0.7l-0.3-6.9l-0.6-14.8l-0.3-6.2l5.3,2.9l0,0l18.3,10.1l0.3,6.9l0.6,14.8l0.3,6.2l-5.3-2.9l0,0
			L404.2,366.9z M477.2,407.1l-0.3-6.9l-0.6-14.8l-0.3-6.2l5.3,2.9l0,0l17.1,9.4l1.2,0.7l0.3,6.9l0.6,14.8l0.3,6.2l-5.3-2.9l0,0
			L477.2,407.1z M499.3,384.6l0.3,6.2l-0.6-0.3l-4.7-2.6l0,0L476,377.9l-0.3-6.9l-0.6-14.8l-0.3-6.2l5.3,2.9l0,0l12.5,6.9l0,0
			l5.8,3.2l0.3,6.9L499.3,384.6z M498.1,355.3l0.3,6.2l-23.6-13l-0.3-6.9l-0.6-14.8l-0.3-6.2l5.3,2.9l0,0l12.5,6.9l0,0l5.8,3.2
			l0.3,6.9L498.1,355.3z M496.8,326l0.3,6.2l-23.6-13l-0.3-6.9l-0.6-14.8l-0.3-6.2l17.8,9.8l0,0l5.8,3.2l0.3,6.9L496.8,326z
			 M495.6,296.8l0.3,6.2l-17.8-9.8h0l-5.8-3.2l-0.3-6.9l-0.6-14.8l-0.3-6.2l23.6,13l0.3,6.9L495.6,296.8z M420.5,234.2l0.3,6.9
			l0.6,14.8l0.3,6.2l-17.8-9.8l0,0l-5.8-3.2l-0.3-6.9l-0.6-14.8l-0.3-6.2L420.5,234.2z M398.4,256.7l-0.3-6.2l17.8,9.8h0l5.8,3.2
			l0.3,6.9l0.6,14.8l0.3,6.2l-23.6-13l-0.3-6.9L398.4,256.7z M399.6,286l-0.3-6.2l5.3,2.9l0,0l12.5,6.9l0,0l5.8,3.2l0.3,6.9
			l0.6,14.8l0.3,6.2l-2.1-1.1l-3.2-1.8l0,0l-18.3-10.1l-0.3-6.9L399.6,286z M400.8,315.3l-0.3-6.2l5.3,2.9l0,0l15.7,8.6l2.7,1.5
			l0.3,6.9l0.6,14.8l0.3,6.2l-5.3-2.9l0,0L401.8,337l-0.3-6.9L400.8,315.3z M457.1,367.5L457.1,367.5l-5.8-3.2l-0.3-6.9l-0.6-14.8
			l-0.3-6.2l17.8,9.8l0,0l5.8,3.2l0.3,6.9l0.6,14.8l0.3,6.2L457.1,367.5z M473.3,341.7l0.3,6.2l-17.8-9.8l0,0L450,335l-0.3-6.9
			l-0.6-14.8l-0.3-6.2l17.8,9.8l0,0l5.8,3.2l0.3,6.9L473.3,341.7z M472.1,312.4l0.3,6.2l-17.8-9.8l0,0l-5.8-3.2l-0.3-6.9l-0.6-14.8
			l-0.3-6.2l5.3,2.9l0,0l18.3,10.1l0.3,6.9L472.1,312.4z M446.4,277.1l0.3,6.9l0.6,14.8l0.3,6.2L424,292l-0.3-6.9l-0.6-14.8
			l-0.3-6.2l5.3,2.9l0,0L446.4,277.1z M424.3,299.6l-0.3-6.2l5.3,2.9l0,0l12.5,6.9h0l5.8,3.2l0.3,6.9l0.6,14.8l0.3,6.2l-23.6-13
			l-0.3-6.9L424.3,299.6z M432.3,353.8L432.3,353.8l-5.8-3.2l-0.3-6.9l-0.6-14.8l-0.3-6.2l5.3,2.9l0,0l12.5,6.9h0l5.8,3.2l0.3,6.9
			l0.6,14.8l0.3,6.2L432.3,353.8z M439.4,244.6L439.4,244.6l5.8,3.2l0.3,6.9l0.6,14.8l0.3,6.2l-5.3-2.9l0,0l-18.3-10.1l-0.3-6.9
			l-0.6-14.8l-0.3-6.2L439.4,244.6z M469.9,261.4l0.3,6.9l0.6,14.8l0.3,6.2l-5.3-2.9l0,0l-18.3-10.1l-0.3-6.9l-0.6-14.8l-0.3-6.2
			L469.9,261.4z M458.3,396.7L458.3,396.7l-5.8-3.2l-0.3-6.9l-0.6-14.8l-0.3-6.2l17.8,9.8l0,0l5.8,3.2l0.3,6.9l0.6,14.8l0.3,6.2
			L458.3,396.7z M433.6,383.1L433.6,383.1l-5.8-3.2l-0.3-6.9l-0.6-14.8l-0.3-6.2l17.8,9.8h0l5.8,3.2l0.3,6.9l0.6,14.8l0.3,6.2
			L433.6,383.1z M438.1,215.3L438.1,215.3l5.8,3.2l0.3,6.9l0.6,14.8l0.3,6.2l-17.8-9.8l0,0l-5.8-3.2l-0.3-6.9l-0.6-14.8l-0.3-6.2
			L438.1,215.3z M468.7,232.2l0.3,6.9l0.6,14.8l0.3,6.2l-5.3-2.9l0,0l-12.5-6.9h0l-5.8-3.2l-0.3-6.9l-0.6-14.8l-0.3-6.2L468.7,232.2
			z M459.6,426L459.6,426l-5.8-3.2l-0.3-6.9l-0.6-14.8l-0.3-6.2l17.8,9.8l0,0l5.8,3.2l0.3,6.9l0.6,14.8l0.3,6.2l-5.3-2.9l0,0
			L459.6,426z M434.8,412.4L434.8,412.4l-5.8-3.2l-0.3-6.9l-0.6-14.8l-0.3-6.2l17.8,9.8h0l5.8,3.2l0.3,6.9l0.6,14.8l0.3,6.2
			L434.8,412.4z M379.5,381.9l-0.3-6.9l-0.6-14.8l-0.3-6.2l5.3,2.9l0,0l18.3,10.1l0.3,6.9l0.6,14.8l0.3,6.2l-5.3-2.9l0,0
			L379.5,381.9z M387.4,158.8L387.4,158.8l5.8,3.2l0.3,6.9l0.6,14.8l0.3,6.2l-5.3-2.9l0,0l-18.3-10.1l-0.3-6.9l-0.6-14.8l-0.3-6.2
			l5.3,2.9l0,0L387.4,158.8z M418,175.6l0.3,6.9l0.6,14.8l0.3,6.2l-5.3-2.9l0,0l-17.1-9.4l-1.2-0.7l-0.3-6.9l-0.6-14.8l-0.3-6.2
			l5.3,2.9l0,0L418,175.6z M436.9,186L436.9,186l5.8,3.2l0.3,6.9l0.6,14.8l0.3,6.2l-17.8-9.8l0,0l-5.8-3.2l-0.3-6.9l-0.6-14.8
			l-0.3-6.2L436.9,186z M461.6,199.6L461.6,199.6l5.8,3.2l0.3,6.9l0.6,14.8l0.3,6.2l-5.3-2.9l0,0l-12.5-6.9l0,0l-5.8-3.2l-0.3-6.9
			l-0.6-14.8l-0.3-6.2L461.6,199.6z M492.2,216.5l0.3,6.9l0.6,14.8l0.3,6.2l-5.3-2.9l0,0l-15.7-8.6l-2.7-1.5l-0.3-6.9l-0.6-14.8
			l-0.3-6.2l5.3,2.9l0,0L492.2,216.5z M516.9,230.1l0.3,6.9l0.6,14.8l0.3,6.2l-5.3-2.9l0,0l-12.5-6.9l0,0l-5.8-3.2l-0.3-6.9
			l-0.6-14.8l-0.3-6.2L516.9,230.1z M528,492.3l-23.6-13l-0.9-21.7l-0.3-6.2l23.6,13l0.3,6.9L528,492.3z M503.3,478.7l-23.6-13
			l-0.9-21.7l-0.3-6.2l2.1,1.1l3.2,1.8l0,0l18.3,10.1l0.3,6.9L503.3,478.7z M478.6,465.1l-23.6-13l-0.9-21.7l-0.3-6.2l23.6,13
			l0.3,6.9L478.6,465.1z M453.8,451.5l-23.6-13l-0.9-21.7l-0.3-6.2l17.8,9.8h0l5.8,3.2l0.3,6.9L453.8,451.5z M429.1,437.8l-23.6-13
			l-0.9-21.7l-0.3-6.2l0.6,0.3l4.7,2.6l0,0l18.3,10.1l0.3,6.9L429.1,437.8z M404.3,424.2l-23.6-13l-0.9-21.7l-0.3-6.2l5.3,2.9l0,0
			l18.3,10.1l0.3,6.9L404.3,424.2z M379.6,410.6l-23.6-13l-0.9-21.7l-0.3-6.2l17.8,9.8h0l5.8,3.2l0.3,6.9L379.6,410.6z M354.9,397
			l-23.6-13l-1.2-27.9l23.6,13l0.3,6.9L354.9,397z M328.8,326.8l23.6,13l0.3,6.9l0.6,14.8l0.3,6.2l-5.3-2.9h0L330,354.7L328.8,326.8
			z M327.6,297.5l23.6,13l0.3,6.9l0.6,14.8l0.3,6.2l-5.3-2.9h0l-18.3-10.1L327.6,297.5z M326.4,268.2l19.5,10.7l4.1,2.3l0.3,6.9
			l0.6,14.8l0.3,6.2l-5.3-2.9h0l-18.3-10.1L326.4,268.2z M325.1,238.9l17.8,9.8l0,0l5.8,3.2l0.3,6.9l0.6,14.8l0.3,6.2l-3.6-2
			l-1.7-0.9h0l-18.3-10.1L325.1,238.9z M323.9,209.6l17.8,9.8l-0.3,0.5l5.6,3.1l0.3,6.6l0.6,0l0.6,14.8l0.3,6.2l-23.6-13
			L323.9,209.6z M322.6,180.3l23.6,13l0.3,6.9l0.6,14.8l-0.6,0l0.2,5.2l-4.4-2.4l-0.3,0.5l-18.3-10.1L322.6,180.3z M321.4,151
			l23.6,13l0.3,6.9l0.6,14.8l0.3,6.2l-5.3-2.9h0L322.6,179L321.4,151z M320.2,121.8l23.6,13l0.3,6.9l0.6,14.8l0.3,6.2l-5.3-2.9h0
			l-18.3-10.1L320.2,121.8z M318.9,92.5l23.6,13l0.9,21.7l0.3,6.2l-5.3-2.9h0l-18.3-10.1L318.9,92.5z M343.7,106.1l23.6,13l0.9,21.7
			l0.3,6.2l-17.8-9.8l0,0l-5.8-3.2l-0.3-6.9L343.7,106.1z M368.4,119.7l23.6,13l0.9,21.7l0.3,6.2l-23.6-13l-0.3-6.9L368.4,119.7z
			 M393.1,133.3l23.6,13l0.9,21.7l0.3,6.2l-5.3-2.9l0,0l-18.3-10.1l-0.3-6.9L393.1,133.3z M417.9,147l23.6,13l0.9,21.7l0.3,6.2
			l-17.8-9.8l0,0l-5.8-3.2l-0.3-6.9L417.9,147z M442.6,160.6l23.6,13l0.9,21.7l0.3,6.2l-17.8-9.8h0l-5.8-3.2l-0.3-6.9L442.6,160.6z
			 M467.4,174.2l23.6,13l0.9,21.7l0.3,6.2l-5.3-2.9l0,0l-18.3-10.1l-0.3-6.9L467.4,174.2z M492.1,187.8l23.6,13l0.9,21.7l0.3,6.2
			l-5.3-2.9l0,0l-12.5-6.9l0,0l-5.8-3.2l-0.3-6.9L492.1,187.8z M516.8,201.5l23.6,13l0.9,21.7l0.3,6.2l-17.8-9.8l0,0l-5.8-3.2
			l-0.3-6.9L516.8,201.5z M541.6,215.1l23.6,13l1.2,27.9l-23.6-13l-0.3-6.9L541.6,215.1z M567.6,285.3l-19.5-10.7l-4.1-2.3l-0.3-6.9
			l-0.6-14.8l-0.3-6.2l5.3,2.9h0l18.3,10.1L567.6,285.3z M568.8,314.6l-17.8-9.8l0,0l-5.8-3.2l-0.3-6.9l-0.6-14.8l-0.3-6.2l3.6,2
			l1.7,0.9h0l18.3,10.1L568.8,314.6z M570.1,343.9l-23.6-13l-0.3-6.9l-0.6-14.8l-0.3-6.2l23.6,13L570.1,343.9z M571.3,373.1
			l-23.6-13l-0.3-6.9l-0.6-14.8l-0.3-6.2l5.3,2.9l0,0l18.3,10.1L571.3,373.1z M572.6,402.4l-17.8-9.8l0.3-0.5l-5.6-3.1l-0.3-6.6
			l-0.6,0l-0.6-14.8l-0.3-6.2l5.3,2.9h0l18.3,10.1L572.6,402.4z M573.8,431.7l-23.6-13l-0.3-6.9l-0.6-14.8l0.6,0l-0.2-5.2l4.4,2.4
			l0.3-0.5l18.3,10.1L573.8,431.7z M575,461l-23.6-13l-0.3-6.9l-0.6-14.8l-0.3-6.2l5.3,2.9h0l18.3,10.1L575,461z M576.3,490.3
			l-19.5-10.7l-4.1-2.3l-0.3-6.9l-0.6-14.8l-0.3-6.2l5.3,2.9h0l18.3,10.1L576.3,490.3z M577.5,519.6l-23.6-13l-0.9-21.7l-0.3-6.2
			l3.6,2l1.7,0.9h0l18.3,10.1L577.5,519.6z"/>
	</g>
</mask>
<linearGradient id="SVGID_6_" gradientUnits="userSpaceOnUse" x1="238.5257" y1="1538.2579" x2="481.0755" y2="1538.2579" gradientTransform="matrix(0.9991 -4.231045e-02 -4.231045e-02 -0.9991 153.8255 1858.1321)">
	<stop  offset="0" style="stop-color:#572E90"/>
	<stop  offset="0.2738" style="stop-color:#57589B"/>
	<stop  offset="0.9062" style="stop-color:#54B2B3"/>
	<stop  offset="1" style="stop-color:#52C2B6"/>
</linearGradient>
<path style="fill:url(#SVGID_6_);" d="M566.3,227.7l-0.6,0l0.3-0.5L318.6,91l-0.3,0.5l-0.6,0l12.4,292.9l0.6,0l-0.3,0.5l247.4,136.2
	l0.3-0.5l0.6,0L566.3,227.7z M551.9,484.9l0.9,21l-23.6-13l-0.9-21.7L528,465l23.6,13L551.9,484.9z M551.3,470.4l0.3,6.2l-5.3-2.9
	l0,0l-12.5-6.9h0l-5.8-3.2l-0.3-6.9L527,442l-0.3-6.2l17.8,9.8l0,0l5.8,3.2l0.3,6.9L551.3,470.4z M550,441.1l0.3,6.2l-17.8-9.8h0
	l-5.8-3.2l-0.3-6.9l-0.6-14.8l-0.3-6.2l17.8,9.8l0,0l5.8,3.2l0.3,6.9L550,441.1z M548.8,411.9l0.3,6.2l-17.8-9.8l0,0l-5.8-3.2
	l-0.3-6.9l-0.6-14.8l-0.3-6.2L542,387l-0.3,0.5l5.6,3.1l0.3,6.6l0.6,0L548.8,411.9z M546.9,367.8l0.6,14.8l-0.6,0l0.2,5.2l-4.4-2.4
	l-0.3,0.5l-12.5-6.9h0l-5.8-3.2l-0.3-6.9l-0.6-14.8l-0.3-6.2l17.8,9.8l0,0l5.8,3.2L546.9,367.8z M546.3,353.3l0.3,6.2l-17.8-9.8h0
	l-5.8-3.2l-0.3-6.9l-0.6-14.8l-0.3-6.2l5.3,2.9l0,0l12.5,6.9l0,0l5.8,3.2l0.3,6.9L546.3,353.3z M545.1,324l0.3,6.2l-23.6-13
	l-0.3-6.9l-0.6-14.8l-0.3-6.2l23.6,13l0.3,6.9L545.1,324z M543.8,294.7l0.3,6.2l-5.3-2.9l0,0l-12.5-6.9l0,0l-5.8-3.2l-0.3-6.9
	l-0.6-14.8l-0.3-6.2l23.6,13l0.3,6.9L543.8,294.7z M542.6,265.4l0.3,6.2l-5.3-2.9l0,0l-12.5-6.9l0,0l-5.8-3.2l-0.3-6.9l-0.6-14.8
	l-0.3-6.2l17.8,9.8l0,0l5.8,3.2l0.3,6.9L542.6,265.4z M362.6,145.2L362.6,145.2l5.8,3.2l0.3,6.9l0.6,14.8l0.3,6.2l-17.8-9.8l0,0
	l-5.8-3.2l-0.3-6.9l-0.6-14.8l-0.3-6.2L362.6,145.2z M346.4,170.9l-0.3-6.2l17.8,9.8l0,0l5.8,3.2l0.3,6.9l0.6,14.8l0.3,6.2
	l-17.8-9.8l0,0l-5.8-3.2l-0.3-6.9L346.4,170.9z M347.6,200.2l-0.3-6.2l17.8,9.8h0l5.8,3.2l0.3,6.9l0.6,14.8l0.3,6.2l-5.3-2.9l0,0
	l-12.5-6.9l0.3-0.5l-5.6-3.1l-0.3-6.6l-0.6,0L347.6,200.2z M349.5,244.3l-0.6-14.8l0.6,0l-0.2-5.2l4.4,2.4l0.3-0.5l18.3,10.1
	l0.3,6.9l0.6,14.8l0.3,6.2l-23.6-13L349.5,244.3z M350.1,258.8l-0.3-6.2l5.3,2.9l0,0l12.5,6.9h0l5.8,3.2l0.3,6.9l0.6,14.8l0.3,6.2
	l-23.6-13l-0.3-6.9L350.1,258.8z M351.4,288.1l-0.3-6.2l5.3,2.9l0,0l12.5,6.9l0,0l5.8,3.2l0.3,6.9l0.6,14.8l0.3,6.2l-17.8-9.8l0,0
	l-5.8-3.2l-0.3-6.9L351.4,288.1z M352.6,317.3l-0.3-6.2l17.8,9.8h0l5.8,3.2l0.3,6.9l0.6,14.8l0.3,6.2l-17.8-9.8l0,0l-5.8-3.2
	l-0.3-6.9L352.6,317.3z M353.8,346.6l-0.3-6.2l17.8,9.8h0l5.8,3.2l0.3,6.9l0.6,14.8l0.3,6.2l-17.8-9.8l0,0l-5.8-3.2l-0.3-6.9
	L353.8,346.6z M405.4,396.2l-1.2-0.7l-0.3-6.9l-0.6-14.8l-0.3-6.2l0.6,0.3l4.7,2.6l0,0l18.3,10.1l0.3,6.9l0.6,14.8l0.3,6.2l-5.3-2.9
	l0,0L405.4,396.2z M481.1,437.9l-2.7-1.5l-0.3-6.9l-0.6-14.8l-0.3-6.2l5.3,2.9l0,0l18.3,10.1l0.3,6.9l0.6,14.8l0.3,6.2l-5.3-2.9l0,0
	L481.1,437.9z M509.1,453.3L509.1,453.3l-5.8-3.2l-0.3-6.9l-0.6-14.8l-0.3-6.2l23.6,13l0.3,6.9l0.6,14.8l0.3,6.2l-5.3-2.9l0,0
	L509.1,453.3z M525.3,427.5l0.3,6.2l-5.3-2.9l0,0l-12.5-6.9l0,0l-5.8-3.2l-0.3-6.9l-0.6-14.8l-0.3-6.2l5.3,2.9l0,0l18.3,10.1
	l0.3,6.9L525.3,427.5z M524.1,398.2l0.3,6.2l-5.3-2.9l0,0l-18.3-10.1l-0.3-6.9l-0.6-14.8l-0.3-6.2l5.3,2.9l0,0l18.3,10.1l0.3,6.9
	L524.1,398.2z M522.8,369l0.3,6.2l-5.3-2.9l0,0l-18.3-10.1l-0.3-6.9l-0.6-14.8l-0.3-6.2l5.3,2.9l0,0l18.3,10.1l0.3,6.9L522.8,369z
	 M521.6,339.7l0.3,6.2l-5.3-2.9l0,0l-18.3-10.1L498,326l-0.6-14.8l-0.3-6.2l5.3,2.9l0,0l15.8,8.7l2.5,1.4l0.3,6.9L521.6,339.7z
	 M520.3,310.4l0.3,6.2l-1.9-1.1l-3.4-1.8l0,0L497,303.6l-0.3-6.9l-0.6-14.8l-0.3-6.2l23.6,13l0.3,6.9L520.3,310.4z M519.1,281.1
	l0.3,6.2l-5.3-2.9l0,0l-12.5-6.9l0,0l-5.8-3.2l-0.3-6.9l-0.6-14.8l-0.3-6.2l23.6,13l0.3,6.9L519.1,281.1z M493.4,245.8l0.3,6.9
	l0.6,14.8l0.3,6.2l-5.3-2.9l0,0l-12.5-6.9l0,0l-5.8-3.2l-0.3-6.9l-0.6-14.8l-0.3-6.2l2.1,1.1l3.2,1.8l0,0L493.4,245.8z M419.2,204.9
	l0.3,6.9l0.6,14.8l0.3,6.2l-5.3-2.9l0,0l-12.5-6.9l0,0l-5.8-3.2l-0.3-6.9l-0.6-14.8l-0.3-6.2l0.6,0.3l4.7,2.6l0,0L419.2,204.9z
	 M394.5,191.3l0.3,6.9l0.6,14.8l0.3,6.2l-5.3-2.9l0,0l-18.3-10.1l-0.3-6.9l-0.6-14.8l-0.3-6.2l5.3,2.9l0,0L394.5,191.3z
	 M372.4,213.8l-0.3-6.2l5.3,2.9l0,0l18.3,10.1l0.3,6.9l0.6,14.8l0.3,6.2l-5.3-2.9l0,0l-15.8-8.7l-2.5-1.4l-0.3-6.9L372.4,213.8z
	 M373.6,243.1l-0.3-6.2l1.9,1.1l3.4,1.8l0,0l18.3,10.1l0.3,6.9l0.6,14.8l0.3,6.2l-23.6-13l-0.3-6.9L373.6,243.1z M374.9,272.4
	l-0.3-6.2l5.3,2.9l0,0l12.5,6.9l0,0l5.8,3.2l0.3,6.9l0.6,14.8l0.3,6.2l-23.6-13l-0.3-6.9L374.9,272.4z M376.1,301.7l-0.3-6.2
	l5.3,2.9l0,0l12.5,6.9l0,0l5.8,3.2l0.3,6.9l0.6,14.8l0.3,6.2l-23.6-13l-0.3-6.9L376.1,301.7z M377.3,331l-0.3-6.2l5.3,2.9l0,0
	l12.5,6.9l0,0l5.8,3.2l0.3,6.9l0.6,14.8l0.3,6.2l-5.3-2.9l0,0l-18.3-10.1l-0.3-6.9L377.3,331z M404.2,366.9l-1.2-0.7l-0.3-6.9
	l-0.6-14.8l-0.3-6.2l5.3,2.9l0,0l18.3,10.1l0.3,6.9l0.6,14.8l0.3,6.2l-5.3-2.9l0,0L404.2,366.9z M477.2,407.1l-0.3-6.9l-0.6-14.8
	l-0.3-6.2l5.3,2.9l0,0l17.1,9.4l1.2,0.7l0.3,6.9l0.6,14.8l0.3,6.2l-5.3-2.9l0,0L477.2,407.1z M499.3,384.6l0.3,6.2l-0.6-0.3
	l-4.7-2.6l0,0L476,377.9l-0.3-6.9l-0.6-14.8l-0.3-6.2l5.3,2.9l0,0l12.5,6.9l0,0l5.8,3.2l0.3,6.9L499.3,384.6z M498.1,355.3l0.3,6.2
	l-23.6-13l-0.3-6.9l-0.6-14.8l-0.3-6.2l5.3,2.9l0,0l12.5,6.9l0,0l5.8,3.2l0.3,6.9L498.1,355.3z M496.8,326l0.3,6.2l-23.6-13
	l-0.3-6.9l-0.6-14.8l-0.3-6.2l17.8,9.8l0,0l5.8,3.2l0.3,6.9L496.8,326z M495.6,296.8l0.3,6.2l-17.8-9.8h0l-5.8-3.2l-0.3-6.9
	l-0.6-14.8l-0.3-6.2l23.6,13l0.3,6.9L495.6,296.8z M420.5,234.2l0.3,6.9l0.6,14.8l0.3,6.2l-17.8-9.8l0,0l-5.8-3.2l-0.3-6.9
	l-0.6-14.8l-0.3-6.2L420.5,234.2z M398.4,256.7l-0.3-6.2l17.8,9.8h0l5.8,3.2l0.3,6.9l0.6,14.8l0.3,6.2l-23.6-13l-0.3-6.9
	L398.4,256.7z M399.6,286l-0.3-6.2l5.3,2.9l0,0l12.5,6.9l0,0l5.8,3.2l0.3,6.9l0.6,14.8l0.3,6.2l-2.1-1.1l-3.2-1.8l0,0l-18.3-10.1
	l-0.3-6.9L399.6,286z M400.8,315.3l-0.3-6.2l5.3,2.9l0,0l15.7,8.6l2.7,1.5l0.3,6.9l0.6,14.8l0.3,6.2l-5.3-2.9l0,0L401.8,337
	l-0.3-6.9L400.8,315.3z M457.1,367.5L457.1,367.5l-5.8-3.2l-0.3-6.9l-0.6-14.8l-0.3-6.2l17.8,9.8l0,0l5.8,3.2l0.3,6.9l0.6,14.8
	l0.3,6.2L457.1,367.5z M473.3,341.7l0.3,6.2l-17.8-9.8l0,0L450,335l-0.3-6.9l-0.6-14.8l-0.3-6.2l17.8,9.8l0,0l5.8,3.2l0.3,6.9
	L473.3,341.7z M472.1,312.4l0.3,6.2l-17.8-9.8l0,0l-5.8-3.2l-0.3-6.9l-0.6-14.8l-0.3-6.2l5.3,2.9l0,0l18.3,10.1l0.3,6.9L472.1,312.4
	z M446.4,277.1l0.3,6.9l0.6,14.8l0.3,6.2L424,292l-0.3-6.9l-0.6-14.8l-0.3-6.2l5.3,2.9l0,0L446.4,277.1z M424.3,299.6l-0.3-6.2
	l5.3,2.9l0,0l12.5,6.9h0l5.8,3.2l0.3,6.9l0.6,14.8l0.3,6.2l-23.6-13l-0.3-6.9L424.3,299.6z M432.3,353.8L432.3,353.8l-5.8-3.2
	l-0.3-6.9l-0.6-14.8l-0.3-6.2l5.3,2.9l0,0l12.5,6.9h0l5.8,3.2l0.3,6.9l0.6,14.8l0.3,6.2L432.3,353.8z M439.4,244.6L439.4,244.6
	l5.8,3.2l0.3,6.9l0.6,14.8l0.3,6.2l-5.3-2.9l0,0l-18.3-10.1l-0.3-6.9l-0.6-14.8l-0.3-6.2L439.4,244.6z M469.9,261.4l0.3,6.9
	l0.6,14.8l0.3,6.2l-5.3-2.9l0,0l-18.3-10.1l-0.3-6.9l-0.6-14.8l-0.3-6.2L469.9,261.4z M458.3,396.7L458.3,396.7l-5.8-3.2l-0.3-6.9
	l-0.6-14.8l-0.3-6.2l17.8,9.8l0,0l5.8,3.2l0.3,6.9l0.6,14.8l0.3,6.2L458.3,396.7z M433.6,383.1L433.6,383.1l-5.8-3.2l-0.3-6.9
	l-0.6-14.8l-0.3-6.2l17.8,9.8h0l5.8,3.2l0.3,6.9l0.6,14.8l0.3,6.2L433.6,383.1z M438.1,215.3L438.1,215.3l5.8,3.2l0.3,6.9l0.6,14.8
	l0.3,6.2l-17.8-9.8l0,0l-5.8-3.2l-0.3-6.9l-0.6-14.8l-0.3-6.2L438.1,215.3z M468.7,232.2l0.3,6.9l0.6,14.8l0.3,6.2l-5.3-2.9l0,0
	l-12.5-6.9h0l-5.8-3.2l-0.3-6.9l-0.6-14.8l-0.3-6.2L468.7,232.2z M459.6,426L459.6,426l-5.8-3.2l-0.3-6.9l-0.6-14.8l-0.3-6.2
	l17.8,9.8l0,0l5.8,3.2l0.3,6.9l0.6,14.8l0.3,6.2l-5.3-2.9l0,0L459.6,426z M434.8,412.4L434.8,412.4l-5.8-3.2l-0.3-6.9l-0.6-14.8
	l-0.3-6.2l17.8,9.8h0l5.8,3.2l0.3,6.9l0.6,14.8l0.3,6.2L434.8,412.4z M379.5,381.9l-0.3-6.9l-0.6-14.8l-0.3-6.2l5.3,2.9l0,0
	l18.3,10.1l0.3,6.9l0.6,14.8l0.3,6.2l-5.3-2.9l0,0L379.5,381.9z M387.4,158.8L387.4,158.8l5.8,3.2l0.3,6.9l0.6,14.8l0.3,6.2
	l-5.3-2.9l0,0l-18.3-10.1l-0.3-6.9l-0.6-14.8l-0.3-6.2l5.3,2.9l0,0L387.4,158.8z M418,175.6l0.3,6.9l0.6,14.8l0.3,6.2l-5.3-2.9l0,0
	l-17.1-9.4l-1.2-0.7l-0.3-6.9l-0.6-14.8l-0.3-6.2l5.3,2.9l0,0L418,175.6z M436.9,186L436.9,186l5.8,3.2l0.3,6.9l0.6,14.8l0.3,6.2
	l-17.8-9.8l0,0l-5.8-3.2l-0.3-6.9l-0.6-14.8l-0.3-6.2L436.9,186z M461.6,199.6L461.6,199.6l5.8,3.2l0.3,6.9l0.6,14.8l0.3,6.2
	l-5.3-2.9l0,0l-12.5-6.9l0,0l-5.8-3.2l-0.3-6.9l-0.6-14.8l-0.3-6.2L461.6,199.6z M492.2,216.5l0.3,6.9l0.6,14.8l0.3,6.2l-5.3-2.9
	l0,0l-15.7-8.6l-2.7-1.5l-0.3-6.9l-0.6-14.8l-0.3-6.2l5.3,2.9l0,0L492.2,216.5z M516.9,230.1l0.3,6.9l0.6,14.8l0.3,6.2l-5.3-2.9l0,0
	l-12.5-6.9l0,0l-5.8-3.2l-0.3-6.9l-0.6-14.8l-0.3-6.2L516.9,230.1z M528,492.3l-23.6-13l-0.9-21.7l-0.3-6.2l23.6,13l0.3,6.9
	L528,492.3z M503.3,478.7l-23.6-13l-0.9-21.7l-0.3-6.2l2.1,1.1l3.2,1.8l0,0l18.3,10.1l0.3,6.9L503.3,478.7z M478.6,465.1l-23.6-13
	l-0.9-21.7l-0.3-6.2l23.6,13l0.3,6.9L478.6,465.1z M453.8,451.5l-23.6-13l-0.9-21.7l-0.3-6.2l17.8,9.8h0l5.8,3.2l0.3,6.9
	L453.8,451.5z M429.1,437.8l-23.6-13l-0.9-21.7l-0.3-6.2l0.6,0.3l4.7,2.6l0,0l18.3,10.1l0.3,6.9L429.1,437.8z M404.3,424.2l-23.6-13
	l-0.9-21.7l-0.3-6.2l5.3,2.9l0,0l18.3,10.1l0.3,6.9L404.3,424.2z M379.6,410.6l-23.6-13l-0.9-21.7l-0.3-6.2l17.8,9.8h0l5.8,3.2
	l0.3,6.9L379.6,410.6z M354.9,397l-23.6-13l-1.2-27.9l23.6,13l0.3,6.9L354.9,397z M328.8,326.8l23.6,13l0.3,6.9l0.6,14.8l0.3,6.2
	l-5.3-2.9h0L330,354.7L328.8,326.8z M327.6,297.5l23.6,13l0.3,6.9l0.6,14.8l0.3,6.2l-5.3-2.9h0l-18.3-10.1L327.6,297.5z
	 M326.4,268.2l19.5,10.7l4.1,2.3l0.3,6.9l0.6,14.8l0.3,6.2l-5.3-2.9h0l-18.3-10.1L326.4,268.2z M325.1,238.9l17.8,9.8l0,0l5.8,3.2
	l0.3,6.9l0.6,14.8l0.3,6.2l-3.6-2l-1.7-0.9h0l-18.3-10.1L325.1,238.9z M323.9,209.6l17.8,9.8l-0.3,0.5l5.6,3.1l0.3,6.6l0.6,0
	l0.6,14.8l0.3,6.2l-23.6-13L323.9,209.6z M322.6,180.3l23.6,13l0.3,6.9l0.6,14.8l-0.6,0l0.2,5.2l-4.4-2.4l-0.3,0.5l-18.3-10.1
	L322.6,180.3z M321.4,151l23.6,13l0.3,6.9l0.6,14.8l0.3,6.2l-5.3-2.9h0L322.6,179L321.4,151z M320.2,121.8l23.6,13l0.3,6.9l0.6,14.8
	l0.3,6.2l-5.3-2.9h0l-18.3-10.1L320.2,121.8z M318.9,92.5l23.6,13l0.9,21.7l0.3,6.2l-5.3-2.9h0l-18.3-10.1L318.9,92.5z M343.7,106.1
	l23.6,13l0.9,21.7l0.3,6.2l-17.8-9.8l0,0l-5.8-3.2l-0.3-6.9L343.7,106.1z M368.4,119.7l23.6,13l0.9,21.7l0.3,6.2l-23.6-13l-0.3-6.9
	L368.4,119.7z M393.1,133.3l23.6,13l0.9,21.7l0.3,6.2l-5.3-2.9l0,0l-18.3-10.1l-0.3-6.9L393.1,133.3z M417.9,147l23.6,13l0.9,21.7
	l0.3,6.2l-17.8-9.8l0,0l-5.8-3.2l-0.3-6.9L417.9,147z M442.6,160.6l23.6,13l0.9,21.7l0.3,6.2l-17.8-9.8h0l-5.8-3.2l-0.3-6.9
	L442.6,160.6z M467.4,174.2l23.6,13l0.9,21.7l0.3,6.2l-5.3-2.9l0,0l-18.3-10.1l-0.3-6.9L467.4,174.2z M492.1,187.8l23.6,13l0.9,21.7
	l0.3,6.2l-5.3-2.9l0,0l-12.5-6.9l0,0l-5.8-3.2l-0.3-6.9L492.1,187.8z M516.8,201.5l23.6,13l0.9,21.7l0.3,6.2l-17.8-9.8l0,0l-5.8-3.2
	l-0.3-6.9L516.8,201.5z M541.6,215.1l23.6,13l1.2,27.9l-23.6-13l-0.3-6.9L541.6,215.1z M567.6,285.3l-19.5-10.7l-4.1-2.3l-0.3-6.9
	l-0.6-14.8l-0.3-6.2l5.3,2.9h0l18.3,10.1L567.6,285.3z M568.8,314.6l-17.8-9.8l0,0l-5.8-3.2l-0.3-6.9l-0.6-14.8l-0.3-6.2l3.6,2
	l1.7,0.9h0l18.3,10.1L568.8,314.6z M570.1,343.9l-23.6-13l-0.3-6.9l-0.6-14.8l-0.3-6.2l23.6,13L570.1,343.9z M571.3,373.1l-23.6-13
	l-0.3-6.9l-0.6-14.8l-0.3-6.2l5.3,2.9l0,0l18.3,10.1L571.3,373.1z M572.6,402.4l-17.8-9.8l0.3-0.5l-5.6-3.1l-0.3-6.6l-0.6,0
	l-0.6-14.8l-0.3-6.2l5.3,2.9h0l18.3,10.1L572.6,402.4z M573.8,431.7l-23.6-13l-0.3-6.9l-0.6-14.8l0.6,0l-0.2-5.2l4.4,2.4l0.3-0.5
	l18.3,10.1L573.8,431.7z M575,461l-23.6-13l-0.3-6.9l-0.6-14.8l-0.3-6.2l5.3,2.9h0l18.3,10.1L575,461z M576.3,490.3l-19.5-10.7
	l-4.1-2.3l-0.3-6.9l-0.6-14.8l-0.3-6.2l5.3,2.9h0l18.3,10.1L576.3,490.3z M577.5,519.6l-23.6-13l-0.9-21.7l-0.3-6.2l3.6,2l1.7,0.9h0
	l18.3,10.1L577.5,519.6z"/>
<path style="fill:#F05B5A;" d="M352.6,184.1c0.9-0.7,2.1-1,3.6-0.7l78.9,12.5l72.1,50l12.1,8.4c4.1,2.9,7.3,8.2,7.4,12.5l2.4,101.3
	c0.4,17-5,30.2-14.8,37.6l0.1,0l-16.2,12l-0.2-5.3l-6.3,1.4l-30.8,7.1l-47.3-47.7c-20.7-20.8-35.8-48-40.8-73.2l-20.1-102.3
	l-14.6-2.6L352.6,184.1z"/>
<linearGradient id="SVGID_7_" gradientUnits="userSpaceOnUse" x1="-3433.5183" y1="578.2286" x2="-3368.7573" y2="578.2286" gradientTransform="matrix(-0.9936 0.1132 0.1132 0.9936 -2943.2173 142.2859)">
	<stop  offset="0" style="stop-color:#572E90"/>
	<stop  offset="0.2738" style="stop-color:#57589B"/>
	<stop  offset="0.9062" style="stop-color:#54B2B3"/>
	<stop  offset="1" style="stop-color:#52C2B6"/>
</linearGradient>
<path style="fill:url(#SVGID_7_);" d="M507.2,245.9l12.1,8.4c4.1,2.9,7.3,8.2,7.4,12.5l2.4,101.3c0.4,17-5,30.2-14.8,37.6l0.1,0
	l-16.2,12l-0.2-5.3l-6.3,1.4c-3.2-16-10.3-30.3-16.6-45.6C459.6,324.3,488.3,286.1,507.2,245.9z"/>
<linearGradient id="SVGID_8_" gradientUnits="userSpaceOnUse" x1="-3416.52" y1="537.9777" x2="-3254.0117" y2="537.9777" gradientTransform="matrix(-0.9936 0.1132 0.1132 0.9936 -2943.2173 142.2859)">
	<stop  offset="0" style="stop-color:#572E90"/>
	<stop  offset="0.2738" style="stop-color:#57589B"/>
	<stop  offset="0.9062" style="stop-color:#54B2B3"/>
	<stop  offset="1" style="stop-color:#52C2B6"/>
</linearGradient>
<path style="fill:url(#SVGID_8_);" d="M352.6,184.1c0.9-0.7,2.1-1,3.6-0.7l78.9,12.5l72.1,50c-18.9,40.3-47.6,78.5-32.2,122.2
	c6.3,15.3,13.4,29.6,16.6,45.6l-30.8,7.1l-47.3-47.7c-20.7-20.8-35.8-48-40.8-73.2l-20.1-102.3l-14.6-2.6L352.6,184.1z"/>
<linearGradient id="SVGID_9_" gradientUnits="userSpaceOnUse" x1="-3431.7539" y1="477.5324" x2="-3334.6123" y2="477.5324" gradientTransform="matrix(-0.9936 0.1132 0.1132 0.9936 -2943.2173 142.2859)">
	<stop  offset="0" style="stop-color:#572E90"/>
	<stop  offset="0.2738" style="stop-color:#57589B"/>
	<stop  offset="0.9062" style="stop-color:#54B2B3"/>
	<stop  offset="1" style="stop-color:#52C2B6"/>
</linearGradient>
<path style="fill:url(#SVGID_9_);" d="M524.1,259.3L508,271.9l-87.6-65l14.8-11l84.1,58.3C521.1,255.5,522.8,257.3,524.1,259.3z"/>
<linearGradient id="SVGID_10_" gradientUnits="userSpaceOnUse" x1="-3433.5181" y1="533.7404" x2="-3254.0117" y2="533.7404" gradientTransform="matrix(-0.9936 0.1132 0.1132 0.9936 -2943.2173 142.2859)">
	<stop  offset="0" style="stop-color:#572E90"/>
	<stop  offset="0.2738" style="stop-color:#57589B"/>
	<stop  offset="0.9062" style="stop-color:#54B2B3"/>
	<stop  offset="1" style="stop-color:#52C2B6"/>
</linearGradient>
<path style="fill:url(#SVGID_10_);" d="M513.4,406.2c9.4-7.6,14.5-20.5,14.1-37l-2.4-101.3c-0.1-4.3-3.2-9.6-7.4-12.5l-12.1-8.4
	l-72.1-50l-78.9-12.5c-1.5-0.2-2.7,0-3.6,0.7l-13.1,9.7l-0.1,0l14.8-11c0.9-0.7,2.1-1,3.6-0.7l78.9,12.5l72.1,50l12.1,8.4
	c4.1,2.9,7.3,8.2,7.4,12.5l2.4,101.3c0.4,17-5,30.2-14.8,37.6l0.1,0L513.4,406.2z"/>
<g>
	
		<linearGradient id="SVGID_11_" gradientUnits="userSpaceOnUse" x1="-3417.5544" y1="547.2549" x2="-3251.6704" y2="547.2549" gradientTransform="matrix(-0.9936 0.1132 0.1132 0.9936 -2943.2173 142.2859)">
		<stop  offset="0" style="stop-color:#572E90"/>
		<stop  offset="0.2738" style="stop-color:#57589B"/>
		<stop  offset="0.9062" style="stop-color:#54B2B3"/>
		<stop  offset="1" style="stop-color:#52C2B6"/>
	</linearGradient>
	<path style="fill:url(#SVGID_11_);" d="M420.3,206.9l84.1,58.3c4.1,2.9,7.3,8.2,7.4,12.5l2.4,101.3c0.6,23.3-9.6,39.4-27.5,43.5
		l-40.8,9.3l-47.3-47.7c-20.7-20.8-35.8-48-40.8-73.2l-21.6-109.6c-0.9-4.6,1.3-7.6,5.2-7L420.3,206.9z"/>
</g>
<path style="fill:#2D2F77;" d="M514.3,379l-2.4-101.3c-0.1-4.3-3.2-9.6-7.4-12.5l-84.1-58.3l-78.9-12.5c-1.4-0.2-2.5,0-3.4,0.6
	c0.9-1.6,2.5-2.4,4.7-2l78.9,12.5l84.1,58.3c4.1,2.9,7.3,8.2,7.4,12.5l2.4,101.3c0.4,14.8-3.7,26.7-11.3,34.5
	C511,404.3,514.6,392.9,514.3,379z"/>
<g>
	<path style="fill:#132E48;" d="M477,269.6l9.5,6.6c3.3,2.3,5.7,6.4,5.8,9.8l1.9,79.7c0.3,13.4-3.9,23.8-11.7,29.6l0.1,0l-12.7,9.4
		l-0.2-4.2l-5,1.1c-2.5-12.6-8.1-23.9-13-35.9C439.5,331.4,462.1,301.3,477,269.6z"/>
	<path style="fill:#1C3F5A;" d="M355.3,221c0.7-0.5,1.7-0.8,2.8-0.6l62.1,9.9l56.7,39.4c-14.9,31.7-37.5,61.8-25.3,96.3
		c5,12,10.6,23.3,13,35.9l-24.3,5.6l-37.3-37.5c-16.3-16.4-28.2-37.8-32.1-57.6l-15.9-80.5l-11.5-2L355.3,221z"/>
	<path style="fill:#22486A;" d="M490.3,280.2l-12.7,9.9l-69-51.2l11.7-8.7l66.2,45.9C488,277.2,489.3,278.6,490.3,280.2z"/>
	<g>
		<path style="fill:#0B1B30;" d="M408.6,238.9l66.2,45.9c3.3,2.3,5.7,6.4,5.8,9.8l1.9,79.7c0.4,18.3-7.6,31-21.7,34.2l-32.2,7.4
			l-37.3-37.5c-16.3-16.4-28.2-37.8-32.1-57.6l-17-86.3c-0.7-3.7,1-6,4.1-5.5L408.6,238.9z"/>
	</g>
</g>
<g style="opacity:0.3;">
	
		<linearGradient id="SVGID_12_" gradientUnits="userSpaceOnUse" x1="-3371.7129" y1="568.4998" x2="-3241.0842" y2="568.4998" gradientTransform="matrix(-0.9936 0.1132 0.1132 0.9936 -2943.2173 142.2859)">
		<stop  offset="0" style="stop-color:#572E90"/>
		<stop  offset="0.2738" style="stop-color:#57589B"/>
		<stop  offset="0.9062" style="stop-color:#54B2B3"/>
		<stop  offset="1" style="stop-color:#52C2B6"/>
	</linearGradient>
	<path style="fill:url(#SVGID_12_);" d="M397.2,252.8l66.2,45.9c3.3,2.3,5.7,6.4,5.8,9.8l1.9,79.7c0.4,18.3-7.6,31-21.7,34.2
		l-32.2,7.4l-37.3-37.5c-16.3-16.4-28.2-37.8-32.1-57.6l-17-86.3c-0.7-3.7,1-6,4.1-5.5L397.2,252.8z"/>
</g>
<g>
	
		<linearGradient id="SVGID_13_" gradientUnits="userSpaceOnUse" x1="-3372.6589" y1="568.5266" x2="-3240.1382" y2="568.5266" gradientTransform="matrix(-0.9936 0.1132 0.1132 0.9936 -2943.2173 142.2859)">
		<stop  offset="0" style="stop-color:#572E90"/>
		<stop  offset="0.2738" style="stop-color:#57589B"/>
		<stop  offset="0.9062" style="stop-color:#54B2B3"/>
		<stop  offset="1" style="stop-color:#52C2B6"/>
	</linearGradient>
	<path style="fill:url(#SVGID_13_);" d="M379.4,393c-16.4-16.5-28.5-38.2-32.4-58.1l-17-86.3c-0.5-2.3-0.1-4.2,1.1-5.5
		c1-1,2.4-1.4,4-1.2l62.4,9.9l66.4,46.1c3.5,2.4,6.1,6.9,6.2,10.6l1.9,79.7c0.5,18.7-7.9,31.9-22.4,35.2l-32.7,7.5L379.4,393z
		 M334.9,243.9c-0.7-0.1-1.7-0.1-2.4,0.6c-0.7,0.8-1,2.1-0.6,3.8l17,86.3c3.8,19.6,15.8,40.9,31.9,57.1l36.9,37.2l31.6-7.2
		c13.5-3.1,21.4-15.5,20.9-33.3l-1.9-79.7c-0.1-3.1-2.4-7-5.4-9.1l-66.1-45.8L334.9,243.9z"/>
</g>
<g>
	
		<linearGradient id="SVGID_14_" gradientUnits="userSpaceOnUse" x1="2788.8235" y1="297.7574" x2="2967.8833" y2="297.7574" gradientTransform="matrix(1 0 0 1 -2176.2949 0)">
		<stop  offset="0" style="stop-color:#140E43"/>
		<stop  offset="6.924868e-03" style="stop-color:#140E43"/>
		<stop  offset="0.1614" style="stop-color:#1C1850"/>
		<stop  offset="0.3262" style="stop-color:#221E5A"/>
		<stop  offset="0.5066" style="stop-color:#262262"/>
		<stop  offset="0.7125" style="stop-color:#282466"/>
		<stop  offset="1" style="stop-color:#282567"/>
	</linearGradient>
	<path style="opacity:0.8;fill:url(#SVGID_14_);" d="M784.8,232.3c-9.8-5.4-24.6,1.3-24.6,1.3s-3.5,1.5-3.9,2.9
		c-2.1,1.3-3.3,2.5-3.5,2.9c-0.7,1.4-3.7,3.5-5.3,4.6c-1.4,1-3.3,4-4,5.2l-0.1,0c0,0-9.6-2.4-12.8-3.2c-0.2-0.1-0.4-0.1-0.7-0.1
		c0,0,0,0,0,0s-2-0.6-20.5,6c-10.3,3.7-22.6,6.8-29,10.2c-6.3,3.4-11.4,7.7-10.7,8.5c0.4,0.4,3.9,4,7.9,8.2l-0.8,0.4
		c0,0-20.8,9.6-20.9,10.1c0,0.3,1.1,3.8,2.9,6.7c-0.5,0.4-1.2,1-2.1,1.7c0,0-0.1,0.1-0.1,0.1l0,0c-6.2,5-19.3,16.1-23.7,24.3
		c0,0-9.1,7.4-20.7,16.4l3.6,7.2c6.9-3.5,26.4-10.5,29.1-14.2c2.8-3.8,16.9-11.5,16.9-11.5s0,0,0,0.1c0.1,0.5,0.2,2.8-4.7,9.4
		c-5.6,7.6-14.8,20.1-16.2,22.3l-5.4,13.5c1.2-1,1.9-2,2.2-2.5c5.5-1.9,19.9-11.6,24-15.1c4.3-3.7,17.3-15.7,22.3-18.9
		c4-2.6,7.8-4.5,11-7.2c0.8-0.1,1.5-0.2,2.2-0.5c4-1.4,12-7.9,18.3-13.8c0,0,0,0,0,0c0.1-0.1,0.2-0.2,0.3-0.3
		c0.2-0.2,0.4-0.4,0.6-0.5c0.4-0.4,0.8-0.8,1.2-1.2c0.1-0.1,0.3-0.3,0.4-0.4c0.4-0.4,0.8-0.8,1.1-1.1c0.1-0.1,0.3-0.3,0.4-0.4
		c0.4-0.4,0.8-0.8,1.2-1.2c0,0,0.1-0.1,0.1-0.1c0.4-0.4,0.7-0.7,1-1.1c0.1-0.1,0.2-0.2,0.3-0.3c0.3-0.4,0.6-0.7,0.9-1c0,0,0,0,0,0
		c13.8-3.3,30.3-9.5,34.5-11.6c6.6-3.3,15-7.8,12.6-10.6l-4.6-13.5c0,0,2.2-5.6,1.6-6.8c-0.1-0.1-0.1-0.2-0.2-0.2l0,0
		c0,0,0,0-0.1-0.1c0-0.1-0.1-0.1-0.1-0.1c0,0,0,0,0,0c0,0-0.1-0.1-0.1-0.1l0,0l2.1-1.2c1.8-0.1,2.6-0.5,4-1c1.3-0.5,1.7-0.6,4.4-1.7
		c2.7-1.1,1.9-2,1.9-2s1-0.2,2.5-0.8l0,0c0.3-0.1,0.7-0.3,1.1-0.5c0,0,0.1,0,0.1-0.1c0.3-0.2,0.7-0.4,1.1-0.6
		c0.1-0.1,0.2-0.1,0.3-0.2c0.3-0.2,0.7-0.5,1.1-0.7c0.1-0.1,0.3-0.2,0.4-0.3c0.3-0.2,0.7-0.5,1-0.8c0.1-0.1,0.3-0.2,0.4-0.3
		c0,0,0,0,0,0c0.1-0.1,0.2-0.2,0.4-0.3C792,242.3,794.6,237.6,784.8,232.3z"/>
	<g>
		<g>
			<path style="fill:#211C58;" d="M608.6,338.5c0,0-1,1-2,2.2c-1,1.2-3.8,2.9-5,3.6c-1.2,0.7-6.6,4.9-7.8,8.9
				c-1.1,4.1,2.8,4.6,6.7,3.9c4-0.7,7.7-4.4,8.8-5.7c1.1-1.3,4.9-4.3,9.7-6.9c4.9-2.5,1.9-5.9,1.9-5.9L608.6,338.5z"/>
			<path style="fill:#211C58;" d="M644.9,350.6c0,0,0.8,1.8,1,4.2c0.2,2.4,0.6,7.5,0.7,8.9c0.1,1.5,0.2,5.1-2.5,8.6
				c-2.6,3.5-4,4.9-7.5,3.5c-3.5-1.4-3.4-7.2-2.8-10.2c0.6-3,1.2-9.8,1.1-10.5c-0.1-0.7,0.2-1.2,0.2-1.2L644.9,350.6z"/>
			<path style="fill:#282567;" d="M596.5,269.4c0,0,0.7,26.9,7,41.1c0,0,4.5,12.6,5.1,27.5c0,0-1,2.6,0.4,4.7
				c1.5,2.1,10.7,4,12.2-2.9c1.5-6.9,0.9-19.7-0.7-25.1c-1.7-5.4,0.6-20.1,0.6-20.1s2.5,1.6,5.8,12.2c3.3,10.6,5.7,14.7,6.8,17.6
				c1.1,2.9,2.2,20.9,1.5,29.7c0,0,7.4,1.1,9.6-2.5c2.2-3.6,2.9-22,2.3-27.8c-0.5-5.9-3-24.7-2.7-30.5c0.3-5.8,1.5-10.5,0.2-16.4
				c-1.3-5.8-40.6-18.7-40.6-18.7L596.5,269.4z"/>
			
				<linearGradient id="SVGID_15_" gradientUnits="userSpaceOnUse" x1="2825.918" y1="286.5582" x2="2757.7222" y2="336.6249" gradientTransform="matrix(1 0 0 1 -2176.2949 0)">
				<stop  offset="0" style="stop-color:#211C58"/>
				<stop  offset="8.509818e-02" style="stop-color:#23225B"/>
				<stop  offset="0.221" style="stop-color:#283063"/>
				<stop  offset="0.3907" style="stop-color:#314671"/>
				<stop  offset="0.5876" style="stop-color:#406486"/>
				<stop  offset="0.8044" style="stop-color:#5591A6"/>
				<stop  offset="1" style="stop-color:#6ECACE"/>
			</linearGradient>
			<path style="opacity:0.7;fill:url(#SVGID_15_);" d="M596.5,269.4c0,0,0.7,26.9,7,41.1c0,0,4.5,12.6,5.1,27.5c0,0-1,2.6,0.4,4.7
				c1.5,2.1,10.7,4,12.2-2.9c1.5-6.9,0.9-19.7-0.7-25.1c-1.7-5.4,0.6-20.1,0.6-20.1s2.5,1.6,5.8,12.2c3.3,10.6,5.7,14.7,6.8,17.6
				c1.1,2.9,2.2,20.9,1.5,29.7c0,0,7.4,1.1,9.6-2.5c2.2-3.6,2.9-22,2.3-27.8c-0.5-5.9-3-24.7-2.7-30.5c0.3-5.8,1.5-10.5,0.2-16.4
				c-1.3-5.8-40.6-18.7-40.6-18.7L596.5,269.4z"/>
			<path style="fill:#211C58;" d="M644.4,293.3c0.3-5.8,1.5-10.5,0.2-16.4c-0.5-2.2-6.4-5.4-13.5-8.5c-12-1.1-27.3-2.4-28.3-2.2
				c-0.9,0.1-3.4,1.1-5.5,1.9l-0.8,1.2c0,0,0,1.6,0.2,4.3c2.8,0.8,8.2,0,8.2,0c0.8,1.9,5.4,8.6,11.3,11.5c5.8,2.9,22.9,1.9,23.9,3
				c1,1.1,1.2,15.8,1.1,17.7c-0.1,1.9,1.6,13.6,3.2,24.1c1.6,10.2-0.8,22.7-0.9,23.1c0.6-0.4,1-0.8,1.4-1.3c2.2-3.6,2.9-22,2.3-27.8
				C646.5,317.9,644.1,299.1,644.4,293.3z"/>
			<path style="fill:#47419A;" d="M609.7,181.5c0,0-8.7,2-11.6,2.7c-0.5,0.1-0.9,0.5-1.1,0.9c-0.8,2.1-3,8.8-1.4,18.5
				c2,11.9,1.3,20,1.3,20l-4,21c0,0-5.1,20-4.6,20.5c0.4,0.5,11.7,9.1,15.2,7.9c3.5-1.2,2.4-3.2,2.4-3.2s2.8,14.5,15.4,14.3
				c12.6-0.1,22.9-0.1,25-5.2c2.1-5.1-0.6-26.5-2.8-34.9c-2.2-8.5-7.5-25.3-7.5-25.3l18.4-20.4l-15.8-12c0,0-3.8-7-5.3-7.9
				s-2.4-0.1-2.4-0.1L609.7,181.5z"/>
			<path style="fill:#47419A;" d="M609.7,181.5c0,0-8.7,2-11.6,2.7c-0.5,0.1-0.9,0.5-1.1,0.9c-0.8,2.1-3,8.8-1.4,18.5
				c2,11.9,1.3,20,1.3,20l-4,21c0,0-5.1,20-4.6,20.5c0.4,0.5,11.7,9.1,15.2,7.9c3.5-1.2,2.4-3.2,2.4-3.2s2.8,14.5,15.4,14.3
				c12.6-0.1,22.9-0.1,25-5.2c2.1-5.1-0.6-26.5-2.8-34.9c-2.2-8.5-7.5-25.3-7.5-25.3l18.4-20.4l-15.8-12c0,0-3.8-7-5.3-7.9
				s-2.4-0.1-2.4-0.1L609.7,181.5z"/>
			
				<linearGradient id="SVGID_16_" gradientUnits="userSpaceOnUse" x1="2823.1719" y1="219.5079" x2="2758.5964" y2="252.6577" gradientTransform="matrix(1 0 0 1 -2176.2949 0)">
				<stop  offset="0" style="stop-color:#211C58"/>
				<stop  offset="8.509818e-02" style="stop-color:#23225B"/>
				<stop  offset="0.221" style="stop-color:#283063"/>
				<stop  offset="0.3907" style="stop-color:#314671"/>
				<stop  offset="0.5876" style="stop-color:#406486"/>
				<stop  offset="0.8044" style="stop-color:#5591A6"/>
				<stop  offset="1" style="stop-color:#6ECACE"/>
			</linearGradient>
			<path style="opacity:0.7;fill:url(#SVGID_16_);" d="M609.7,181.5c0,0-8.7,2-11.6,2.7c-0.5,0.1-0.9,0.5-1.1,0.9
				c-0.8,2.1-3,8.8-1.4,18.5c2,11.9,1.3,20,1.3,20l-4,21c0,0-5.1,20-4.6,20.5c0.4,0.5,11.7,9.1,15.2,7.9c3.5-1.2,2.4-3.2,2.4-3.2
				s2.8,14.5,15.4,14.3c12.6-0.1,22.9-0.1,25-5.2c2.1-5.1-0.6-26.5-2.8-34.9c-2.2-8.5-7.5-25.3-7.5-25.3l18.4-20.4l-15.8-12
				c0,0-3.8-7-5.3-7.9s-2.4-0.1-2.4-0.1L609.7,181.5z"/>
			<path style="fill:#F1F6FC;" d="M633,178.2c0,0,3.2,3.9-1.4,9.2c-2.9,3.2-7.8,10.2-11.9,17.5c-2.6,4.5-5,6.9-6.4,10.8
				c0,0-0.2-4.6-0.4-11.8c-0.2-6.7-0.3-13.7,0-15.5C613.5,184.7,629.4,176.4,633,178.2z"/>
			<path style="fill:#FCD1C6;" d="M620.9,189.9c0,0-1.6,1-2.2,0.9c-0.6-0.1-2.4-1.9-2.4-1.9s-4.6-0.1-5.1-2c-0.5-2-0.8-3.9-1.3-4.9
				c-0.5-1-2.4-5.9-2.4-7.9c0-2,0.1-5.5-0.8-7.4c-0.9-1.9-2-20.6,16.1-20.1s12.5,19.3,12.5,19.3s1.3,0.6,0.5,3
				c-0.8,2.4-1,2.7-1.4,3.9c-0.4,1.2-0.6,2-1.8,2.9l-0.3,2.2c0,0,0.9,3.4-1.4,6.7C628.7,188,620.9,189.9,620.9,189.9z"/>
			<path style="fill:#4B4A9F;" d="M597.5,184.4c0,0-1.9,0.3-8.2,16c-3.5,8.8-8.9,17.9-10,24.4c-1.1,6.5-0.5,13.5,0.8,14
				c1.2,0.5,23.8,8.9,30.8,11.6c0.4,0.1,0.8-0.1,0.9-0.5l1.9-10.9l-14-5.4c0,0-2.7-3.3-5.2-4.5c0,0,2.8-5.2,2.6-6.6
				c-0.2-1.4,0.2-16-1.4-21.9C594.2,194.8,597.5,184.4,597.5,184.4z"/>
			
				<linearGradient id="SVGID_17_" gradientUnits="userSpaceOnUse" x1="2802.4666" y1="202.3685" x2="2754.0171" y2="235.8488" gradientTransform="matrix(1 0 0 1 -2176.2949 0)">
				<stop  offset="0" style="stop-color:#211C58"/>
				<stop  offset="8.509818e-02" style="stop-color:#23225B"/>
				<stop  offset="0.221" style="stop-color:#283063"/>
				<stop  offset="0.3907" style="stop-color:#314671"/>
				<stop  offset="0.5876" style="stop-color:#406486"/>
				<stop  offset="0.8044" style="stop-color:#5591A6"/>
				<stop  offset="1" style="stop-color:#6ECACE"/>
			</linearGradient>
			<path style="opacity:0.7;fill:url(#SVGID_17_);" d="M597.5,184.4c0,0-1.9,0.3-8.2,16c-3.5,8.8-8.9,17.9-10,24.4
				c-1.1,6.5-0.5,13.5,0.8,14c1.2,0.5,23.8,8.9,30.8,11.6c0.4,0.1,0.8-0.1,0.9-0.5l1.9-10.9l-14-5.4c0,0-2.7-3.3-5.2-4.5
				c0,0,2.8-5.2,2.6-6.6c-0.2-1.4,0.2-16-1.4-21.9C594.2,194.8,597.5,184.4,597.5,184.4z"/>
			<path style="fill:#FCD1C6;" d="M605.7,226c0,0-1.9-1.3-2.4-1.5c-0.5-0.2-3-1.1-3.5-1.3c-0.4-0.2-1.9,0-2.6,0
				c-0.3,0-0.5,0.2-0.6,0.4c-0.6,1.1-2.2,4.3-2.1,5.5c0,0,4.7,2.9,5.2,4.2l0.7,0.2C600.3,233.7,603.5,227,605.7,226z"/>
			<path style="fill:#282567;" d="M643.4,244c-0.5-2-1.2-4.6-2-7.2l-28.3,12.1c0,0,8.5,10.4,23.3,9.7c4.1-0.2,7-1.6,9.2-2.9
				C645,251.1,644.2,246.8,643.4,244z"/>
			<path style="fill:#282567;" d="M654.4,198.2c0,0-7.5,1-13.5,10.6c-6,9.6-10.4,20.6-10.4,20.6l-0.2,1.2c-0.5,3.2-4,5.1-7,3.8
				c-6.4-2.8-15.8-7.1-17.5-8.4c0,0-5.6,3.1-7.2,10.5c-1.2,5.9-0.9,5.9-0.9,5.9s25.1,11.7,34.8,11.6c9.7-0.1,22-32,23.4-38.6
				C657.1,208.8,658.6,200.1,654.4,198.2z"/>
			<path style="fill:#4B4A9F;" d="M654.4,198.2c0,0-7.5,1-13.5,10.6c-6,9.6-10.4,20.6-10.4,20.6l-0.2,1.2c-0.5,3.2-4,5.1-7,3.8
				c-6.4-2.8-15.8-7.1-17.5-8.4c0,0-5.6,3.1-7.2,10.5c-1.2,5.9-0.9,5.9-0.9,5.9s25.1,11.7,34.8,11.6c9.7-0.1,22-32,23.4-38.6
				C657.1,208.8,658.6,200.1,654.4,198.2z"/>
			
				<linearGradient id="SVGID_18_" gradientUnits="userSpaceOnUse" x1="2847.6394" y1="213.044" x2="2777.7224" y2="245.8399" gradientTransform="matrix(1 0 0 1 -2176.2949 0)">
				<stop  offset="0" style="stop-color:#211C58"/>
				<stop  offset="8.509818e-02" style="stop-color:#23225B"/>
				<stop  offset="0.221" style="stop-color:#283063"/>
				<stop  offset="0.3907" style="stop-color:#314671"/>
				<stop  offset="0.5876" style="stop-color:#406486"/>
				<stop  offset="0.8044" style="stop-color:#5591A6"/>
				<stop  offset="1" style="stop-color:#6ECACE"/>
			</linearGradient>
			<path style="opacity:0.7;fill:url(#SVGID_18_);" d="M654.4,198.2c0,0-7.5,1-13.5,10.6c-6,9.6-10.4,20.6-10.4,20.6l-0.2,1.2
				c-0.5,3.2-4,5.1-7,3.8c-6.4-2.8-15.8-7.1-17.5-8.4c0,0-5.6,3.1-7.2,10.5c-1.2,5.9-0.9,5.9-0.9,5.9s25.1,11.7,34.8,11.6
				c9.7-0.1,22-32,23.4-38.6C657.1,208.8,658.6,200.1,654.4,198.2z"/>
			<path style="fill:#47419A;" d="M626.8,235.9c0,0,3.2,3,4.5,1.3c1.4-1.6,1-1.8,1-1.8s2.9,0,3.2-1.8c0.3-1.8,1.8-0.8,1.8-2.8
				c0.1-2-2.3-1.6-2.3-1.6L626.8,235.9z"/>
			<path style="fill:#FCD1C6;" d="M623,234.4c0,0,0.9-0.8,2-1.8c1.1-1,2.9-4.9,3.2-5.2c0.3-0.3,4.1-3.3,5.9-3.3s0.5,2,0.1,2.3
				c-0.4,0.3-2.2,1.2-2.2,1.2s-1.8,1.5-2,1.8c-0.2,0.2,5.1-0.4,5.9,0.2c0.8,0.5,0.6,1.9,0.1,2.2c-0.6,0.4-1.1,0.4-1.1,0.4
				s0.6,1.6-1,2.3c-1.6,0.7-2,0.3-2,0.3s-0.1,2.8-2.8,2.2L623,234.4z"/>
			<path style="fill:#AA8483;" d="M606.3,157.1c0,0-2.4,7.5,3.9,5.4c6.2-2.1,11.9-5.7,13.8-4.4c1.5,1,1.4,4.2,1.3,5.7
				c0,0.5,0.1,1,0.4,1.4l1.8,2.7c0.2,0.3,0.3,0.7,0.4,1l0.1,1.9c0,0.5,0.4,0.8,0.9,0.9l0.4,0c0.5,0,0.9-0.3,1-0.8l0.5-2.7
				c0,0,1.5-3.7,4.6-2.2c0,0,2.1-2.8,1.4-8.7c-0.7-5.9-3.4-12.1-15-13.1C610,143.1,606.3,157.1,606.3,157.1z"/>
			<path style="fill:#C4CBD5;" d="M624.1,196.5l-1.7-1.4c0,0-1.6,1.3-2.2,2.8c-0.6,1.4,0,5.9,0,5.9l-0.5,0.9l-0.7-1.2l-0.6-5.3
				c0,0,0.6-4,0.7-4.1c0.1-0.1,3.4,0.4,3.4,0.4S623.6,195.4,624.1,196.5z"/>
			<path style="fill:#C4CBD5;" d="M615.7,191.2c0,0-1.9,0.1-2.7,0.8c0,0,2,0.1,2.3,0.1C615.6,192.2,615.7,191.2,615.7,191.2z"/>
			<path style="fill:#282567;" d="M619.3,191.6l3.1,2.9c0,0-2.7,1.3-3.5,3.7c0,0-3.4,0.6-3.7-0.6c-0.3-1.2,0-4.3-0.4-5.7
				C614.4,190.5,619.3,191.6,619.3,191.6z"/>
			<path style="fill:#282567;" d="M615.3,197.6c0,0-0.6,2.6-1.2,3.6c-0.6,1.1-1.3,2.2-1.3,2.2l0.1,15c0,0,5.5-11.4,6.7-13.7
				c0,0-0.2-5.5-0.7-6.5C618.4,197.2,615.3,197.6,615.3,197.6z"/>
			<path style="fill:#E2B1A6;" d="M630.2,175.4c-3.6,10.5-13.8,13.6-13.8,13.6s1.8,1.8,2.4,1.9c0.6,0.1,2.2-0.9,2.2-0.9
				s7.8-1.9,10-5.2c2.3-3.3,1.4-6.7,1.4-6.7l0.3-2.2C631,176.3,630.2,175.4,630.2,175.4z"/>
			<path style="fill:#282567;" d="M638.5,187.6c0,0-1.4,4.9-1.6,5.1c-0.2,0.2-3.6-0.2-3.6-0.2l1.7,3.1c0,0-17.2,18.4-20.8,28.4
				c0,0,8.1-12.6,22.5-27.6l-2-3.1l3.5,0.7L638.5,187.6z"/>
			<path style="fill:#282567;" d="M610.2,183.3l-0.9,1l1.1,1l-3.2,2.9c0,0-1,20.2,2.9,33.5c0,0-5.3-12.3-4.1-34.1l3.4-2.3l-1.1-1.1
				L610.2,183.3z"/>
			<path style="fill:#211C58;" d="M621.1,294.6c0,0,0,0,0.1,0.1l-4.5-4.7c2.1,2.9-0.3,16.2-0.6,19.2c-0.2,3,2.4,9.3,3.4,16.7
				c1,7.3-1,17.8-1,17.9c1.3-0.7,2.3-2,2.7-3.9c1.5-6.9,0.9-19.7-0.7-25.1C618.8,309.3,621.1,294.6,621.1,294.6z"/>
			<path style="fill:#936E6E;" d="M629.3,171.7c0.5,0,0.9-0.3,1-0.8l0.5-2.7c0,0,1.5-3.7,4.6-2.2c0,0,2-2.6,1.4-8.3
				c-3.4,5.2-11.1,7.6-11.1,7.6l1.8,2.7c0.2,0.3,0.3,0.7,0.4,1l0.1,1.9c0,0.5,0.4,0.8,0.9,0.9L629.3,171.7z"/>
		</g>
	</g>
</g>
</svg>
