<?xml version="1.0" encoding="utf-8"?>
<!-- Generator: Adobe Illustrator 17.0.0, SVG Export Plug-In . SVG Version: 6.00 Build 0)  -->
<!DOCTYPE svg PUBLIC "-//W3C//DTD SVG 1.0//EN" "http://www.w3.org/TR/2001/REC-SVG-20010904/DTD/svg10.dtd">
<svg version="1.0" id="Layer_1" xmlns="http://www.w3.org/2000/svg" xmlns:xlink="http://www.w3.org/1999/xlink" x="0px" y="0px"
	 width="800px" height="550px" viewBox="0 0 800 550" style="enable-background:new 0 0 800 550;" xml:space="preserve">
<g>
	<defs>
		<rect id="SVGID_1_" x="-0.4" y="-588.2" width="800.3" height="1138.2"/>
	</defs>
	<clipPath id="SVGID_2_">
		<use xlink:href="#SVGID_1_"  style="overflow:visible;"/>
	</clipPath>
	
		<linearGradient id="SVGID_3_" gradientUnits="userSpaceOnUse" x1="-1612.0409" y1="111.3509" x2="-1612.0409" y2="468.2972" gradientTransform="matrix(1 0 0 1 2011.8231 0)">
		<stop  offset="0" style="stop-color:#572E90"/>
		<stop  offset="0.2738" style="stop-color:#57589B"/>
		<stop  offset="0.9062" style="stop-color:#54B2B3"/>
		<stop  offset="1" style="stop-color:#52C2B6"/>
	</linearGradient>
	<polygon style="clip-path:url(#SVGID_2_);fill:url(#SVGID_3_);" points="818.3,567.8 -18.7,567.8 -18.7,443.9 818.3,103.6 	"/>
</g>
<g>
	<g>
		
			<linearGradient id="SVGID_4_" gradientUnits="userSpaceOnUse" x1="-2686.7795" y1="384.4479" x2="-2397.4919" y2="384.4479" gradientTransform="matrix(-0.9934 -0.1147 -0.1147 0.9934 -1741.1757 -245.5161)">
			<stop  offset="0.1" style="stop-color:#3865B0;stop-opacity:0"/>
			<stop  offset="0.6172" style="stop-color:#3865B0;stop-opacity:0.2"/>
			<stop  offset="0.9" style="stop-color:#3865B0;stop-opacity:0"/>
		</linearGradient>
		
			<line style="fill:none;stroke:url(#SVGID_4_);stroke-width:15;stroke-linecap:round;stroke-linejoin:round;stroke-miterlimit:10;" x1="885.2" y1="366.5" x2="594.9" y2="489.7"/>
		
			<linearGradient id="SVGID_5_" gradientUnits="userSpaceOnUse" x1="-2567.3459" y1="326.947" x2="-2088.4209" y2="326.947" gradientTransform="matrix(-0.9934 -0.1147 -0.1147 0.9934 -1741.1757 -245.5161)">
			<stop  offset="0.1" style="stop-color:#3865B0;stop-opacity:0"/>
			<stop  offset="0.6172" style="stop-color:#3865B0;stop-opacity:0.2"/>
			<stop  offset="0.9" style="stop-color:#3865B0;stop-opacity:0"/>
		</linearGradient>
		
			<line style="fill:none;stroke:url(#SVGID_5_);stroke-width:15;stroke-linecap:round;stroke-linejoin:round;stroke-miterlimit:10;" x1="779.4" y1="242.2" x2="288.3" y2="450.6"/>
		
			<linearGradient id="SVGID_6_" gradientUnits="userSpaceOnUse" x1="-2415.1113" y1="281.0052" x2="-2089.3889" y2="281.0052" gradientTransform="matrix(-0.9934 -0.1147 -0.1147 0.9934 -1741.1757 -245.5161)">
			<stop  offset="0.1" style="stop-color:#3865B0;stop-opacity:0"/>
			<stop  offset="0.6172" style="stop-color:#3865B0;stop-opacity:0.2"/>
			<stop  offset="0.9" style="stop-color:#3865B0;stop-opacity:0"/>
		</linearGradient>
		
			<line style="fill:none;stroke:url(#SVGID_6_);stroke-width:11;stroke-linecap:round;stroke-linejoin:round;stroke-miterlimit:10;" x1="630.5" y1="221.4" x2="297.4" y2="362.8"/>
		
			<linearGradient id="SVGID_7_" gradientUnits="userSpaceOnUse" x1="-2649.761" y1="340.1286" x2="-2254.7783" y2="340.1286" gradientTransform="matrix(-0.9934 -0.1147 -0.1147 0.9934 -1741.1757 -245.5161)">
			<stop  offset="0.1" style="stop-color:#3865B0;stop-opacity:0"/>
			<stop  offset="0.6172" style="stop-color:#3865B0;stop-opacity:0.2"/>
			<stop  offset="0.9" style="stop-color:#3865B0;stop-opacity:0"/>
		</linearGradient>
		
			<line style="fill:none;stroke:url(#SVGID_7_);stroke-width:35;stroke-linecap:round;stroke-linejoin:round;stroke-miterlimit:10;" x1="846.4" y1="292.9" x2="465.3" y2="454.6"/>
	</g>
	<g>
		
			<linearGradient id="SVGID_8_" gradientUnits="userSpaceOnUse" x1="-2515.9592" y1="432.7539" x2="-2479.5107" y2="369.6235" gradientTransform="matrix(-0.9934 -0.1147 -0.1147 0.9934 -1741.1757 -245.5161)">
			<stop  offset="0" style="stop-color:#3865B0;stop-opacity:0.2"/>
			<stop  offset="1" style="stop-color:#3865B0"/>
		</linearGradient>
		<path style="fill:url(#SVGID_8_);" d="M719.9,394.6l57.5,42.7c2.3,1.7,1.9,5.2-0.7,6.3l-97.1,42.1c-3.5,1.5-7.6,1.1-10.8-1.2
			l-58-42.4c-2.3-1.7-1.9-5.2,0.7-6.3l97.7-42.3C712.7,391.8,716.8,392.3,719.9,394.6z"/>
		<path style="fill:none;stroke:#3865B0;stroke-linecap:round;stroke-linejoin:round;stroke-miterlimit:10;" d="M790.6,438.6
			l-69.3-51.5c-3.4-2.5-7.8-3-11.7-1.3l-111.3,48.2c-2.8,1.2-3.2,5-0.8,6.8l70,51.2c3.4,2.5,7.8,3,11.6,1.3l110.7-47.9
			C792.6,444.2,793,440.4,790.6,438.6z"/>
		
			<linearGradient id="SVGID_9_" gradientUnits="userSpaceOnUse" x1="-2372.4487" y1="379.4074" x2="-2304.949" y2="262.4946" gradientTransform="matrix(-0.9934 -0.1147 -0.1147 0.9934 -1741.1757 -245.5161)">
			<stop  offset="0" style="stop-color:#3865B0;stop-opacity:0.2"/>
			<stop  offset="1" style="stop-color:#3865B0"/>
		</linearGradient>
		<path style="fill:url(#SVGID_9_);" d="M533.3,274.1l124.5,92.4l-99.3,42.2c-2.3,1-4.9,0.7-6.9-0.8l-116.3-86.4
			c-2.2-1.6-1.8-5,0.7-6L533.3,274.1z"/>
		<path style="fill:none;stroke:#3865B0;stroke-linecap:round;stroke-linejoin:round;stroke-miterlimit:10;" d="M671.5,368.1
			L534.2,266.3l-111.7,47.4c-2.6,1.1-3,4.6-0.8,6.3l127.6,94.8c2.8,2,6.4,2.5,9.5,1.1L671.5,368.1z"/>
		
			<linearGradient id="SVGID_10_" gradientUnits="userSpaceOnUse" x1="-2255.1165" y1="408.6466" x2="-2218.365" y2="344.9912" gradientTransform="matrix(-0.9934 -0.1147 -0.1147 0.9934 -1741.1757 -245.5161)">
			<stop  offset="0" style="stop-color:#3865B0;stop-opacity:0.2"/>
			<stop  offset="1" style="stop-color:#3865B0"/>
		</linearGradient>
		<path style="fill:url(#SVGID_10_);" d="M387.8,367l31.8-13.5c2.1-0.9,4.4-0.6,6.2,0.7l61.9,45.9c1.4,1,1.1,3.2-0.5,3.9l-31.8,13.5
			c-2.1,0.9-4.4,0.6-6.2-0.7l-61.9-45.9C386,369.8,386.2,367.6,387.8,367z"/>
		<path style="fill:none;stroke:#3865B0;stroke-linecap:round;stroke-linejoin:round;stroke-miterlimit:10;" d="M501.8,402.1
			l-73.7-54.7c-2.7-2-6.2-2.4-9.2-1.1l-45.3,19.2c-1.4,0.6-1.6,2.5-0.4,3.4l73.7,54.7c2.7,2,6.2,2.4,9.2,1.1l45.3-19.2
			C502.8,404.8,503.1,403,501.8,402.1z"/>
		
			<line style="fill:none;stroke:#3865B0;stroke-linecap:round;stroke-linejoin:round;stroke-miterlimit:10;" x1="629.2" y1="386.1" x2="658.5" y2="407.8"/>
		
			<line style="fill:none;stroke:#3865B0;stroke-linecap:round;stroke-linejoin:round;stroke-miterlimit:10;" x1="477.4" y1="361.5" x2="445" y2="375.6"/>
	</g>
	<g>
		<path style="fill:#546FB5;" d="M674.9,245.9l-11.5,99.7l-3.3,1.4l-121.1-93.8l9.8-100c0,0,2.3-0.9,3.1-1.3
			c0.8-0.4,1.8-0.4,2.7,0.3l117.6,87.3C674.1,240.9,675.2,243.4,674.9,245.9z"/>
		<path style="fill:#2E2E80;" d="M671.6,247.3L660,346.9l-124.5-92.4l11.5-99.2c0.2-2,2.5-3,4.1-1.8l117.6,87.3
			C670.8,242.3,671.8,244.8,671.6,247.3z"/>
		<polygon style="fill:#3B449C;" points="665.3,244.9 654.7,335.9 539.9,250.9 550.4,159.8 		"/>
		<path style="fill:#546FB5;" d="M535.1,258.3L660,346.9l-0.4,3.8l-99.3,42.2c-2.3,1-4.9,0.7-6.9-0.8l-116.3-86.4
			c-1.1-0.8-1.5-2-1.4-3.2c0.1-1.2,0.4-3.9,0.4-3.9L535.1,258.3z"/>
		<path style="fill:#96BFE6;" d="M535.6,254.5L660,346.9l-99.3,42.2c-2.3,1-4.9,0.7-6.9-0.8l-116.3-86.4c-2.2-1.6-1.8-5,0.7-6
			L535.6,254.5z"/>
		<g>
			<polygon style="fill:#7EB3E1;" points="483.3,289.4 536.9,266.6 639.7,342.9 586.1,365.7 			"/>
			<g>
				<polygon style="fill:#3C3E98;" points="530.3,271.3 536.1,268.8 634.2,341.6 628.3,344 				"/>
				<polygon style="fill:#3C3E98;" points="522,274.8 527.9,272.3 625.9,345.1 620,347.6 				"/>
				<polygon style="fill:#3C3E98;" points="513.8,278.3 519.7,275.8 617.7,348.6 611.8,351.1 				"/>
				<polygon style="fill:#3C3E98;" points="505.5,281.8 511.4,279.3 609.4,352.1 603.6,354.6 				"/>
				<polygon style="fill:#3C3E98;" points="497.3,285.3 503.2,282.8 601.2,355.6 595.3,358.1 				"/>
				<polygon style="fill:#3C3E98;" points="489.1,288.8 494.9,286.3 593,359.1 587.1,361.6 				"/>
			</g>
			<g>
				<line style="fill:none;stroke:#8EB1DD;stroke-miterlimit:10;" x1="627" y1="335.6" x2="611.6" y2="342.1"/>
				<line style="fill:none;stroke:#8EB1DD;stroke-miterlimit:10;" x1="620.8" y1="331" x2="613.1" y2="334.2"/>
				<line style="fill:none;stroke:#8EB1DD;stroke-miterlimit:10;" x1="606.7" y1="339.5" x2="599" y2="342.7"/>
				<line style="fill:none;stroke:#8EB1DD;stroke-miterlimit:10;" x1="594.5" y1="340.1" x2="586.8" y2="343.4"/>
				<line style="fill:none;stroke:#8EB1DD;stroke-miterlimit:10;" x1="590.1" y1="345.9" x2="582.4" y2="349.2"/>
				<line style="fill:none;stroke:#8EB1DD;stroke-miterlimit:10;" x1="584.2" y1="352.3" x2="576.5" y2="355.6"/>
				<line style="fill:none;stroke:#8EB1DD;stroke-miterlimit:10;" x1="579.3" y1="347.3" x2="571.6" y2="350.6"/>
				<line style="fill:none;stroke:#8EB1DD;stroke-miterlimit:10;" x1="535.1" y1="315.5" x2="527.4" y2="318.8"/>
				<line style="fill:none;stroke:#8EB1DD;stroke-miterlimit:10;" x1="529.3" y1="311" x2="521.6" y2="314.2"/>
				<line style="fill:none;stroke:#8EB1DD;stroke-miterlimit:10;" x1="523.6" y1="306.4" x2="515.9" y2="309.6"/>
				<line style="fill:none;stroke:#8EB1DD;stroke-miterlimit:10;" x1="517.8" y1="301.8" x2="510.1" y2="305.1"/>
				<line style="fill:none;stroke:#8EB1DD;stroke-miterlimit:10;" x1="500.5" y1="289.4" x2="492.8" y2="292.6"/>
				<line style="fill:none;stroke:#8EB1DD;stroke-miterlimit:10;" x1="572.8" y1="342.9" x2="565.1" y2="346.1"/>
				<line style="fill:none;stroke:#8EB1DD;stroke-miterlimit:10;" x1="615.3" y1="326.9" x2="607.6" y2="330.1"/>
				<line style="fill:none;stroke:#8EB1DD;stroke-miterlimit:10;" x1="609.8" y1="322.8" x2="602.1" y2="326"/>
				<line style="fill:none;stroke:#8EB1DD;stroke-miterlimit:10;" x1="604.3" y1="318.7" x2="596.6" y2="321.9"/>
				<line style="fill:none;stroke:#8EB1DD;stroke-miterlimit:10;" x1="598.7" y1="314.6" x2="591" y2="317.8"/>
				<line style="fill:none;stroke:#8EB1DD;stroke-miterlimit:10;" x1="593.2" y1="310.5" x2="585.5" y2="313.7"/>
				<line style="fill:none;stroke:#8EB1DD;stroke-miterlimit:10;" x1="587.7" y1="306.4" x2="580" y2="309.6"/>
				<line style="fill:none;stroke:#8EB1DD;stroke-miterlimit:10;" x1="582.2" y1="302.3" x2="574.5" y2="305.5"/>
				<line style="fill:none;stroke:#8EB1DD;stroke-miterlimit:10;" x1="576.7" y1="298.2" x2="569" y2="301.4"/>
				<line style="fill:none;stroke:#8EB1DD;stroke-miterlimit:10;" x1="571.2" y1="294.1" x2="563.5" y2="297.3"/>
				<line style="fill:none;stroke:#8EB1DD;stroke-miterlimit:10;" x1="565.7" y1="290" x2="558" y2="293.2"/>
				<line style="fill:none;stroke:#8EB1DD;stroke-miterlimit:10;" x1="560.1" y1="285.9" x2="552.5" y2="289.1"/>
				<line style="fill:none;stroke:#8EB1DD;stroke-miterlimit:10;" x1="554.6" y1="281.8" x2="546.9" y2="285"/>
				<line style="fill:none;stroke:#8EB1DD;stroke-miterlimit:10;" x1="549.1" y1="277.7" x2="541.4" y2="280.9"/>
				<line style="fill:none;stroke:#8EB1DD;stroke-miterlimit:10;" x1="543.6" y1="273.6" x2="535.9" y2="276.8"/>
			</g>
		</g>
		<g>
			<path style="fill:#6891CB;" d="M528.1,329.9l32.9,24.4c0.6,0.4,0.5,1.4-0.2,1.7l-20.8,8.8c-0.9,0.4-2,0.3-2.9-0.3l-32.9-24.4
				c-0.6-0.4-0.5-1.4,0.2-1.7l20.8-8.8C526.2,329.2,527.3,329.3,528.1,329.9z"/>
			<path style="fill:#4A79BC;" d="M560.9,355L528,330.6c-0.8-0.6-1.9-0.7-2.9-0.3l-20.8,8.8c-0.2,0.1-0.4,0.3-0.5,0.4
				c-0.1-0.4,0.1-0.9,0.5-1.1l20.8-8.8c0.9-0.4,2-0.3,2.9,0.3l32.9,24.4c0.4,0.3,0.5,0.8,0.3,1.2C561.2,355.3,561.1,355.1,560.9,355
				z"/>
		</g>
		<g>
			
				<linearGradient id="SVGID_11_" gradientUnits="userSpaceOnUse" x1="-2400.3813" y1="213.3545" x2="-2361.1765" y2="213.3545" gradientTransform="matrix(-0.9934 -0.1147 -0.1147 0.9934 -1741.1757 -245.5161)">
				<stop  offset="0" style="stop-color:#5260AB"/>
				<stop  offset="1" style="stop-color:#5260AB;stop-opacity:0.2"/>
			</linearGradient>
			<path style="fill:url(#SVGID_11_);" d="M581.4,224.2l0.9-7.8l36.4,26.8l-0.9,7.8L581.4,224.2z M582.9,217.7l-0.7,6.2l35.1,25.9
				l0.7-6.2L582.9,217.7z M580.1,236l0.9-7.8l36.4,26.8l-0.9,7.8L580.1,236z M581.5,229.5l-0.7,6.2l35.1,25.9l0.7-6.2L581.5,229.5z"
				/>
			
				<linearGradient id="SVGID_12_" gradientUnits="userSpaceOnUse" x1="-2397.498" y1="223.1065" x2="-2376.4814" y2="223.1065" gradientTransform="matrix(-0.9934 -0.1147 -0.1147 0.9934 -1741.1757 -245.5161)">
				<stop  offset="0" style="stop-color:#5260AB"/>
				<stop  offset="1" style="stop-color:#5260AB;stop-opacity:0.2"/>
			</linearGradient>
			<path style="fill:url(#SVGID_12_);" d="M612.3,254.8c0.7,0.1,1.5,0.7,1.8,1.5c0.3,0.7,0,1.3-0.7,1.2c-0.7-0.1-1.5-0.7-1.8-1.5
				C611.3,255.2,611.6,254.7,612.3,254.8z M607.4,252.9c0.3,0.7,1.1,1.4,1.8,1.5c0.7,0.1,1-0.5,0.7-1.2c-0.3-0.7-1.1-1.4-1.8-1.5
				C607.4,251.6,607.1,252.2,607.4,252.9z M603.2,249.9c0.3,0.7,1.1,1.4,1.8,1.5c0.7,0.1,1-0.5,0.7-1.2c-0.3-0.7-1.1-1.4-1.8-1.5
				C603.2,248.6,602.9,249.1,603.2,249.9z M599,246.8c0.3,0.7,1.1,1.4,1.8,1.5c0.7,0.1,1-0.5,0.7-1.2c-0.3-0.7-1.1-1.4-1.8-1.5
				C599,245.6,598.7,246.1,599,246.8z M594.8,243.8c0.3,0.7,1.1,1.4,1.8,1.5c0.7,0.1,1-0.5,0.7-1.2c-0.3-0.7-1.1-1.4-1.8-1.5
				C594.8,242.5,594.5,243.1,594.8,243.8z"/>
			
				<linearGradient id="SVGID_13_" gradientUnits="userSpaceOnUse" x1="-2380.1436" y1="228.7349" x2="-2375.2898" y2="228.7349" gradientTransform="matrix(-0.9934 -0.1147 -0.1147 0.9934 -1741.1757 -245.5161)">
				<stop  offset="0" style="stop-color:#5260AB"/>
				<stop  offset="1" style="stop-color:#5260AB;stop-opacity:0.2"/>
			</linearGradient>
			<polygon style="fill:url(#SVGID_13_);" points="594.4,252.8 594.5,253.4 593.6,253.6 596.9,256 596.5,256.5 593.3,254.2 
				593.5,255.1 592.8,255.3 592.3,253.1 			"/>
		</g>
		<g>
			
				<linearGradient id="SVGID_14_" gradientUnits="userSpaceOnUse" x1="-2336.949" y1="336.3156" x2="-2326.9021" y2="318.914" gradientTransform="matrix(-0.9934 -0.1147 -0.1147 0.9934 -1741.1757 -245.5161)">
				<stop  offset="0" style="stop-color:#51C7F3"/>
				<stop  offset="0.4526" style="stop-color:#7BCFE9"/>
				<stop  offset="1" style="stop-color:#9DD9E1"/>
			</linearGradient>
			<path style="opacity:0.11;fill:url(#SVGID_14_);" d="M531.6,339.7c6.3-0.9,14.1,1.8,17.5,6.1c3.4,4.3,1.1,8.5-5.2,9.5
				c-6.3,0.9-14.1-1.8-17.5-6.1C523,344.9,525.3,340.7,531.6,339.7z"/>
			
				<linearGradient id="SVGID_15_" gradientUnits="userSpaceOnUse" x1="-2335.3015" y1="333.462" x2="-2328.5496" y2="321.7675" gradientTransform="matrix(-0.9934 -0.1147 -0.1147 0.9934 -1741.1757 -245.5161)">
				<stop  offset="0" style="stop-color:#51C7F3"/>
				<stop  offset="0.4526" style="stop-color:#7BCFE9"/>
				<stop  offset="1" style="stop-color:#9DD9E1"/>
			</linearGradient>
			<path style="opacity:0.15;fill:url(#SVGID_15_);" d="M533.6,342.3c4.2-0.6,9.5,1.2,11.8,4.1c2.3,2.9,0.7,5.7-3.5,6.4
				c-4.2,0.6-9.5-1.2-11.8-4.1C527.8,345.8,529.4,342.9,533.6,342.3z"/>
			
				<linearGradient id="SVGID_16_" gradientUnits="userSpaceOnUse" x1="-2334.041" y1="331.2787" x2="-2329.8103" y2="323.9508" gradientTransform="matrix(-0.9934 -0.1147 -0.1147 0.9934 -1741.1757 -245.5161)">
				<stop  offset="0" style="stop-color:#51C7F3"/>
				<stop  offset="0.4526" style="stop-color:#7BCFE9"/>
				<stop  offset="1" style="stop-color:#9DD9E1"/>
			</linearGradient>
			<path style="opacity:0.25;fill:url(#SVGID_16_);" d="M535.2,344.2c2.6-0.4,5.9,0.8,7.4,2.6c1.4,1.8,0.5,3.6-2.2,4
				c-2.6,0.4-5.9-0.8-7.4-2.6C531.5,346.4,532.5,344.6,535.2,344.2z"/>
			<path style="fill:none;stroke:#9DD9E1;stroke-width:0.5;stroke-linecap:round;stroke-linejoin:round;stroke-miterlimit:10;" d="
				M536.6,346.1c1.1-0.2,2.6,0.3,3.2,1.1c0.6,0.8,0.2,1.5-0.9,1.7c-1.1,0.2-2.6-0.3-3.2-1.1C535.1,347,535.5,346.3,536.6,346.1z"/>
		</g>
	</g>
	<g>
		<path style="fill:#546FB5;" d="M721.8,378.2l59.2,43.5c0,0-0.1,1.3-0.3,2.5c-0.1,1.2-0.9,2.4-2.2,2.9l-97.1,42.1
			c-3.5,1.5-7.6,1.1-10.7-1.2l-58-42.4c-1.1-0.8-1.6-2.1-1.5-3.3c0.1-1.3,0.3-2.6,0.3-2.6l99.6-42.8
			C714.6,375.4,718.7,375.8,721.8,378.2z"/>
		<path style="fill:#2E2E80;" d="M722.1,375.7l57.5,42.7c2.3,1.7,1.9,5.2-0.7,6.3l-97.1,42.1c-3.5,1.5-7.6,1.1-10.7-1.2l-58-42.4
			c-2.3-1.7-1.9-5.2,0.7-6.3l97.7-42.3C714.9,372.9,719,373.4,722.1,375.7z"/>
		<polygon style="fill:#3B449C;" points="714.1,380 769.5,421.1 680.4,459.7 624.5,418.8 		"/>
		<path style="fill:#3C3E98;" d="M643,437.8c1.6-0.2,3.5,0.4,4.4,1.5s0.3,2.1-1.3,2.4c-1.6,0.2-3.5-0.4-4.4-1.5
			S641.4,438.1,643,437.8z"/>
		<g>
			
				<linearGradient id="SVGID_17_" gradientUnits="userSpaceOnUse" x1="-2507.9551" y1="400.5513" x2="-2487.4336" y2="365.0073" gradientTransform="matrix(-0.9934 -0.1147 -0.1147 0.9934 -1741.1757 -245.5161)">
				<stop  offset="0" style="stop-color:#51C7F3"/>
				<stop  offset="0.4526" style="stop-color:#7BCFE9"/>
				<stop  offset="1" style="stop-color:#9DD9E1"/>
			</linearGradient>
			<path style="opacity:0.11;fill:url(#SVGID_17_);" d="M683.5,405.4c12.8-1.9,28.8,3.7,35.8,12.5c7,8.8,2.2,17.4-10.6,19.3
				c-12.8,1.9-28.8-3.7-35.8-12.5C666,416,670.7,407.3,683.5,405.4z"/>
			
				<linearGradient id="SVGID_18_" gradientUnits="userSpaceOnUse" x1="-2504.5898" y1="394.7227" x2="-2490.7988" y2="370.8359" gradientTransform="matrix(-0.9934 -0.1147 -0.1147 0.9934 -1741.1757 -245.5161)">
				<stop  offset="0" style="stop-color:#51C7F3"/>
				<stop  offset="0.4526" style="stop-color:#7BCFE9"/>
				<stop  offset="1" style="stop-color:#9DD9E1"/>
			</linearGradient>
			<path style="opacity:0.15;fill:url(#SVGID_18_);" d="M687.6,410.7c8.6-1.3,19.4,2.5,24,8.4c4.7,5.9,1.5,11.7-7.1,13
				c-8.6,1.3-19.4-2.5-24-8.4C675.8,417.7,679,411.9,687.6,410.7z"/>
			
				<linearGradient id="SVGID_19_" gradientUnits="userSpaceOnUse" x1="-2502.0151" y1="390.2631" x2="-2493.3735" y2="375.2954" gradientTransform="matrix(-0.9934 -0.1147 -0.1147 0.9934 -1741.1757 -245.5161)">
				<stop  offset="0" style="stop-color:#51C7F3"/>
				<stop  offset="0.4526" style="stop-color:#7BCFE9"/>
				<stop  offset="1" style="stop-color:#9DD9E1"/>
			</linearGradient>
			<path style="opacity:0.25;fill:url(#SVGID_19_);" d="M690.8,414.6c5.4-0.8,12.1,1.6,15.1,5.3c2.9,3.7,0.9,7.3-4.5,8.1
				c-5.4,0.8-12.1-1.6-15.1-5.3C683.4,419.1,685.4,415.4,690.8,414.6z"/>
			<path style="fill:none;stroke:#9DD9E1;stroke-width:0.5;stroke-linecap:round;stroke-linejoin:round;stroke-miterlimit:10;" d="
				M693.8,418.5c2.3-0.3,5.2,0.7,6.5,2.3c1.3,1.6,0.4,3.2-1.9,3.5c-2.3,0.3-5.2-0.7-6.5-2.3C690.6,420.4,691.5,418.8,693.8,418.5z"
				/>
		</g>
	</g>
	<g>
		<path style="fill:#546FB5;" d="M388.7,349.7l32.9-13.3c2.1-0.9,4.4-0.6,6.2,0.7l63,46.2c0,0-0.2,0.9-0.2,1.6c0,0.8-0.5,1.7-1.4,2
			l-31.8,13.5c-2.1,0.9-4.4,0.6-6.2-0.7l-61.9-45.9c-0.6-0.4-0.8-1-0.9-1.6C388.4,351.2,388.7,349.7,388.7,349.7z"/>
		<path style="fill:#2E2E80;" d="M390,347.8l31.8-13.5c2.1-0.9,4.4-0.6,6.2,0.7L490,381c1.4,1,1.1,3.2-0.5,3.9l-31.8,13.5
			c-2.1,0.9-4.4,0.6-6.2-0.7l-61.9-45.9C388.2,350.6,388.4,348.5,390,347.8z"/>
		<polygon style="fill:#3B449C;" points="394.1,351.8 427.3,337.7 485.4,380.9 452.2,394.9 		"/>
		<g>
			
				<linearGradient id="SVGID_20_" gradientUnits="userSpaceOnUse" x1="-2242.6641" y1="363.9514" x2="-2230.7693" y2="343.3492" gradientTransform="matrix(-0.9934 -0.1147 -0.1147 0.9934 -1741.1757 -245.5161)">
				<stop  offset="0" style="stop-color:#51C7F3"/>
				<stop  offset="0.4526" style="stop-color:#7BCFE9"/>
				<stop  offset="1" style="stop-color:#9DD9E1"/>
			</linearGradient>
			<path style="opacity:0.11;fill:url(#SVGID_20_);" d="M432.9,353.2c7.4-1.1,16.7,2.1,20.7,7.2c4,5.1,1.3,10.1-6.1,11.2
				c-7.4,1.1-16.7-2.1-20.7-7.2C422.7,359.4,425.5,354.3,432.9,353.2z"/>
			
				<linearGradient id="SVGID_21_" gradientUnits="userSpaceOnUse" x1="-2240.6719" y1="360.5008" x2="-2232.7615" y2="346.7998" gradientTransform="matrix(-0.9934 -0.1147 -0.1147 0.9934 -1741.1757 -245.5161)">
				<stop  offset="0" style="stop-color:#51C7F3"/>
				<stop  offset="0.4526" style="stop-color:#7BCFE9"/>
				<stop  offset="1" style="stop-color:#9DD9E1"/>
			</linearGradient>
			<path style="opacity:0.15;fill:url(#SVGID_21_);" d="M435.3,356.3c4.9-0.7,11.1,1.4,13.8,4.8c2.7,3.4,0.9,6.7-4.1,7.4
				s-11.1-1.4-13.8-4.8C428.6,360.4,430.4,357.1,435.3,356.3z"/>
			
				<linearGradient id="SVGID_22_" gradientUnits="userSpaceOnUse" x1="-2238.832" y1="357.3141" x2="-2234.6013" y2="349.9864" gradientTransform="matrix(-0.9934 -0.1147 -0.1147 0.9934 -1741.1757 -245.5161)">
				<stop  offset="0" style="stop-color:#51C7F3"/>
				<stop  offset="0.4526" style="stop-color:#7BCFE9"/>
				<stop  offset="1" style="stop-color:#9DD9E1"/>
			</linearGradient>
			<path style="opacity:0.25;fill:url(#SVGID_22_);" d="M437.6,359.2c2.6-0.4,5.9,0.8,7.4,2.6c1.4,1.8,0.5,3.6-2.2,4
				c-2.6,0.4-5.9-0.8-7.4-2.6C434,361.4,434.9,359.6,437.6,359.2z"/>
			<path style="fill:none;stroke:#9DD9E1;stroke-width:0.5;stroke-linecap:round;stroke-linejoin:round;stroke-miterlimit:10;" d="
				M439.1,361.1c1.1-0.2,2.6,0.3,3.2,1.1c0.6,0.8,0.2,1.5-0.9,1.7c-1.1,0.2-2.6-0.3-3.2-1.1C437.5,362,437.9,361.2,439.1,361.1z"/>
		</g>
	</g>
	<g>
		<g>
			<path style="fill:none;stroke:#9DD9E1;stroke-linecap:round;stroke-linejoin:round;stroke-miterlimit:10;" d="M647,232.9
				l-124.2,26.3c-5.4,1.1-9,4-9.4,7.5l-11.7,101.1"/>
			<path style="fill:none;stroke:#9DD9E1;stroke-linecap:round;stroke-linejoin:round;stroke-miterlimit:10;" d="M507,322.1
				l-55.7,15.2c-4.5,1.2-7.4,4.1-7.8,7.5l-4.5,38.7"/>
			<path style="fill:none;stroke:#9DD9E1;stroke-linecap:round;stroke-linejoin:round;stroke-miterlimit:10;" d="M647,232.9
				l75.3,47.3c2.4,1.5,2.1,4.6-0.6,5.5L651.1,310c-4.2,1.4-7.1,4.7-7.5,8.5l-12.8,110.5"/>
		</g>
		<g>
			
				<linearGradient id="SVGID_23_" gradientUnits="userSpaceOnUse" x1="-2442.9697" y1="215.6355" x2="-2430.1404" y2="193.4146" gradientTransform="matrix(-0.9934 -0.1147 -0.1147 0.9934 -1741.1757 -245.5161)">
				<stop  offset="0" style="stop-color:#07629D"/>
				<stop  offset="0.2671" style="stop-color:#0B76AB"/>
				<stop  offset="0.7673" style="stop-color:#0FA0C9"/>
				<stop  offset="1" style="stop-color:#16B2D5"/>
			</linearGradient>
			<path style="fill:url(#SVGID_23_);" d="M657.6,229.4c2.7,1.3,4.4,2.7,5.6,4.1c1.2-0.3,3.3-0.9,5.4-1.5l-1.7,14.4l-15.8-1.8
				c-6.4-4.7-13-13.7-13-13.7s6.4-1.3,9.3-2.2C650.3,228,653.7,227.6,657.6,229.4z"/>
			
				<linearGradient id="SVGID_24_" gradientUnits="userSpaceOnUse" x1="-2491.0842" y1="240.0196" x2="-2480.2627" y2="221.276" gradientTransform="matrix(-0.9934 -0.1147 -0.1147 0.9934 -1741.1757 -245.5161)">
				<stop  offset="0" style="stop-color:#1E4280"/>
				<stop  offset="0.1226" style="stop-color:#1E538B"/>
				<stop  offset="0.4411" style="stop-color:#267BA9"/>
				<stop  offset="0.7036" style="stop-color:#2B9FC4"/>
				<stop  offset="0.8968" style="stop-color:#30B7D8"/>
				<stop  offset="1" style="stop-color:#2EC2E1"/>
			</linearGradient>
			<path style="fill:url(#SVGID_24_);" d="M701.3,260.3c1.8-0.7,7.2-0.2,10.5,1.5c5,2.5,7.7,7.3,6.3,10.5c-0.7,1.5-2,2.4-3.7,2.8
				c-1.9,0.4-11.2,2.8-11.2,2.8l-20-12.7C683.2,265,698.5,259.4,701.3,260.3z"/>
			<g>
				
					<linearGradient id="SVGID_25_" gradientUnits="userSpaceOnUse" x1="-2471.04" y1="229.8771" x2="-2451.0425" y2="195.2403" gradientTransform="matrix(-0.9934 -0.1147 -0.1147 0.9934 -1741.1757 -245.5161)">
					<stop  offset="0" style="stop-color:#07629D"/>
					<stop  offset="0.289" style="stop-color:#177EB1"/>
					<stop  offset="0.6213" style="stop-color:#23A0C9"/>
					<stop  offset="0.8682" style="stop-color:#2EB7D9"/>
					<stop  offset="1" style="stop-color:#2EC2E1"/>
				</linearGradient>
				<path style="fill:url(#SVGID_25_);" d="M656,244.5l2.6-9.2l2.4-1.2l2.2-0.7c1.2-0.3,3.3-0.9,5.4-1.5c4.9-1.4,10.1-1.4,17,2.1
					c10.5,5.3,18.3,15.4,17.5,22.4c-0.2,1.6-0.8,2.8-1.7,3.8l-11.7,2.9L656,244.5z"/>
			</g>
			
				<linearGradient id="SVGID_26_" gradientUnits="userSpaceOnUse" x1="-2469.4053" y1="250.2146" x2="-2434.8494" y2="190.3619" gradientTransform="matrix(-0.9934 -0.1147 -0.1147 0.9934 -1741.1757 -245.5161)">
				<stop  offset="0" style="stop-color:#51C7F3"/>
				<stop  offset="0.4526" style="stop-color:#7BCFE9"/>
				<stop  offset="1" style="stop-color:#9DD9E1"/>
			</linearGradient>
			<path style="fill:url(#SVGID_26_);" d="M699.8,264.3c-2.9-1.5-8.1-2.3-10.2-1.1c0.9-1,1.5-2.2,1.7-3.8c0.8-7-7-17.1-17.5-22.4
				c-10.3-5.2-19.3-4-20.4,2.8c-1.1-2.4-2.7-5.2-7.6-7.5c-6.2-2.9-12.4-1.1-12.9,3c-0.6,4.8,2,10.4,9.2,14l53.5,27.2
				c5,2.5,9.3,1.7,10.7-1.4C707.8,271.9,704.7,266.8,699.8,264.3z"/>
		</g>
	</g>
</g>
<linearGradient id="SVGID_27_" gradientUnits="userSpaceOnUse" x1="2163.1289" y1="388.1383" x2="2316.614" y2="388.1383" gradientTransform="matrix(1 0 0 1 -1934.4424 0)">
	<stop  offset="0" style="stop-color:#140E43"/>
	<stop  offset="6.924868e-03" style="stop-color:#140E43"/>
	<stop  offset="0.1614" style="stop-color:#1C1850"/>
	<stop  offset="0.3262" style="stop-color:#221E5A"/>
	<stop  offset="0.5066" style="stop-color:#262262"/>
	<stop  offset="0.7125" style="stop-color:#282466"/>
	<stop  offset="1" style="stop-color:#282567"/>
</linearGradient>
<path style="fill:url(#SVGID_27_);" d="M376.3,332c-8.4-4.6-21.1,1.1-21.1,1.1s-3,1.3-3.3,2.4c-1.8,1.1-2.8,2.2-3,2.5
	c-0.6,1.2-3.2,3-4.5,4c-1.2,0.9-2.8,3.4-3.4,4.5l-0.1,0c0,0-8.2-2.1-11-2.8c-0.2,0-0.4,0-0.6,0c0,0,0,0,0,0s-1.7-0.5-17.6,5.2
	c-8.8,3.2-19.4,5.8-24.8,8.7c-5.4,2.9-9.8,6.6-9.1,7.3c0.3,0.3,3.3,3.5,6.8,7l-0.7,0.4c0,0-17.9,8.2-17.9,8.7c0,0.3,1,3.2,2.5,5.8
	c-0.5,0.4-1.1,0.8-1.8,1.4c0,0-0.1,0-0.1,0.1h0c-5.3,4.3-16.5,13.8-20.3,20.8c0,0-7.8,6.4-17.7,14.1l3.1,6.2c5.9-3,22.6-9,25-12.2
	c2.4-3.3,14.5-9.9,14.5-9.9s0,0,0,0.1c0.1,0.4,0.2,2.4-4,8.1c-4.8,6.5-12.7,17.2-13.9,19.1l-4.6,11.6c1-0.9,1.7-1.8,1.9-2.2
	c4.7-1.6,17.1-9.9,20.6-12.9c3.7-3.1,14.8-13.4,19.1-16.2c3.4-2.2,6.7-3.9,9.5-6.1c0.7-0.1,1.3-0.2,1.9-0.4
	c3.5-1.2,10.3-6.8,15.7-11.8c0,0,0,0,0,0c0.1-0.1,0.2-0.2,0.3-0.3c0.2-0.2,0.3-0.3,0.5-0.5c0.4-0.3,0.7-0.7,1.1-1
	c0.1-0.1,0.2-0.2,0.3-0.3c0.3-0.3,0.7-0.6,1-1c0.1-0.1,0.2-0.2,0.4-0.4c0.3-0.4,0.7-0.7,1-1c0,0,0.1-0.1,0.1-0.1
	c0.3-0.3,0.6-0.6,0.9-0.9c0.1-0.1,0.2-0.2,0.2-0.3c0.3-0.3,0.5-0.6,0.8-0.9c0,0,0,0,0,0c11.8-2.8,26-8.2,29.5-10
	c5.6-2.8,12.9-6.7,10.8-9.1l-3.9-11.6c0,0,1.9-4.8,1.3-5.8c0-0.1-0.1-0.1-0.1-0.2l0,0c0,0,0,0-0.1-0.1c0,0-0.1-0.1-0.1-0.1
	c0,0,0,0,0,0c0,0-0.1-0.1-0.1-0.1l0,0l1.8-1c1.6-0.1,2.3-0.4,3.4-0.9c1.2-0.5,1.5-0.5,3.8-1.5c2.3-0.9,1.7-1.7,1.7-1.7
	s0.8-0.2,2.1-0.7c0,0,0,0,0,0c0.3-0.1,0.6-0.3,0.9-0.4c0,0,0.1,0,0.1-0.1c0.3-0.1,0.6-0.3,0.9-0.5c0.1,0,0.2-0.1,0.2-0.1
	c0.3-0.2,0.6-0.4,0.9-0.6c0.1-0.1,0.2-0.2,0.4-0.2c0.3-0.2,0.6-0.4,0.9-0.7c0.1-0.1,0.2-0.2,0.4-0.3c0,0,0,0,0,0
	c0.1-0.1,0.2-0.2,0.3-0.3C382.6,340.6,384.8,336.6,376.3,332z"/>
<g>
	<g>
		<path style="fill:#211C58;" d="M225.3,423c0,0-0.8,0.9-1.7,1.9c-0.9,1-3.3,2.4-4.3,3.1c-1,0.6-5.7,4.2-6.7,7.7s2.4,3.9,5.8,3.3
			c3.4-0.6,6.6-3.8,7.5-4.9c0.9-1.1,4.2-3.7,8.4-5.9c4.2-2.2,1.7-5.1,1.7-5.1L225.3,423z"/>
		<path style="fill:#211C58;" d="M256.4,433.4c0,0,0.7,1.6,0.9,3.6c0.2,2,0.5,6.4,0.6,7.7c0.1,1.3,0.1,4.4-2.1,7.4
			c-2.3,3-3.4,4.2-6.4,3c-3-1.2-2.9-6.2-2.4-8.8c0.5-2.6,1-8.4,1-9c-0.1-0.6,0.2-1,0.2-1L256.4,433.4z"/>
		<path style="fill:#282567;" d="M215,363.8c0,0,0.6,23,6,35.3c0,0,3.8,10.8,4.4,23.6c0,0-0.9,2.2,0.4,4c1.3,1.8,9.1,3.4,10.4-2.5
			c1.3-5.9,0.8-16.9-0.6-21.5c-1.4-4.6,0.5-17.3,0.5-17.3s2.2,1.4,5,10.5c2.8,9.1,4.9,12.6,5.9,15.1c1,2.5,1.9,17.9,1.2,25.5
			c0,0,6.4,0.9,8.2-2.1c1.8-3.1,2.5-18.8,2-23.9c-0.5-5-2.6-21.1-2.3-26.1s1.3-9,0.2-14c-1.1-5-34.8-16-34.8-16L215,363.8z"/>
		
			<linearGradient id="SVGID_28_" gradientUnits="userSpaceOnUse" x1="2194.9253" y1="378.5386" x2="2136.4697" y2="421.4544" gradientTransform="matrix(1 0 0 1 -1934.4424 0)">
			<stop  offset="0" style="stop-color:#211C58"/>
			<stop  offset="8.509818e-02" style="stop-color:#23225B"/>
			<stop  offset="0.221" style="stop-color:#283063"/>
			<stop  offset="0.3907" style="stop-color:#314671"/>
			<stop  offset="0.5876" style="stop-color:#406486"/>
			<stop  offset="0.8044" style="stop-color:#5591A6"/>
			<stop  offset="1" style="stop-color:#6ECACE"/>
		</linearGradient>
		<path style="opacity:0.7;fill:url(#SVGID_28_);" d="M215,363.8c0,0,0.6,23,6,35.3c0,0,3.8,10.8,4.4,23.6c0,0-0.9,2.2,0.4,4
			c1.3,1.8,9.1,3.4,10.4-2.5c1.3-5.9,0.8-16.9-0.6-21.5c-1.4-4.6,0.5-17.3,0.5-17.3s2.2,1.4,5,10.5c2.8,9.1,4.9,12.6,5.9,15.1
			c1,2.5,1.9,17.9,1.2,25.5c0,0,6.4,0.9,8.2-2.1c1.8-3.1,2.5-18.8,2-23.9c-0.5-5-2.6-21.1-2.3-26.1s1.3-9,0.2-14
			c-1.1-5-34.8-16-34.8-16L215,363.8z"/>
		<path style="fill:#211C58;" d="M256,384.3c0.3-5,1.3-9,0.2-14c-0.4-1.9-5.5-4.6-11.6-7.3c-10.3-0.9-23.4-2-24.3-1.9
			c-0.8,0.1-2.9,0.9-4.7,1.6l-0.7,1.1c0,0,0,1.4,0.2,3.7c2.4,0.7,7,0,7,0c0.7,1.6,4.7,7.4,9.7,9.8c5,2.5,19.6,1.6,20.4,2.6
			c0.8,0.9,1,13.6,0.9,15.2c-0.1,1.6,1.4,11.7,2.7,20.6c1.3,8.8-0.7,19.5-0.8,19.8c0.5-0.3,0.9-0.7,1.2-1.2c1.8-3.1,2.5-18.8,2-23.9
			C257.8,405.4,255.7,389.3,256,384.3z"/>
		<path style="fill:#47419A;" d="M226.2,288.5c0,0-7.5,1.7-10,2.3c-0.4,0.1-0.8,0.4-0.9,0.8c-0.7,1.8-2.5,7.5-1.2,15.9
			c1.7,10.2,1.2,17.1,1.2,17.1l-3.5,18c0,0-4.3,17.1-4,17.6c0.4,0.5,10,7.8,13,6.8c3-1,2-2.7,2-2.7s2.4,12.4,13.2,12.3
			c10.8-0.1,19.6-0.1,21.4-4.4c1.8-4.4-0.5-22.7-2.4-30c-1.9-7.3-6.4-21.7-6.4-21.7l15.8-17.5L251,292.5c0,0-3.2-6-4.6-6.8
			c-1.3-0.8-2-0.1-2-0.1L226.2,288.5z"/>
		<path style="fill:#47419A;" d="M226.2,288.5c0,0-7.5,1.7-10,2.3c-0.4,0.1-0.8,0.4-0.9,0.8c-0.7,1.8-2.5,7.5-1.2,15.9
			c1.7,10.2,1.2,17.1,1.2,17.1l-3.5,18c0,0-4.3,17.1-4,17.6c0.4,0.5,10,7.8,13,6.8c3-1,2-2.7,2-2.7s2.4,12.4,13.2,12.3
			c10.8-0.1,19.6-0.1,21.4-4.4c1.8-4.4-0.5-22.7-2.4-30c-1.9-7.3-6.4-21.7-6.4-21.7l15.8-17.5L251,292.5c0,0-3.2-6-4.6-6.8
			c-1.3-0.8-2-0.1-2-0.1L226.2,288.5z"/>
		
			<linearGradient id="SVGID_29_" gradientUnits="userSpaceOnUse" x1="2192.5713" y1="321.065" x2="2137.219" y2="349.4801" gradientTransform="matrix(1 0 0 1 -1934.4424 0)">
			<stop  offset="0" style="stop-color:#211C58"/>
			<stop  offset="8.509818e-02" style="stop-color:#23225B"/>
			<stop  offset="0.221" style="stop-color:#283063"/>
			<stop  offset="0.3907" style="stop-color:#314671"/>
			<stop  offset="0.5876" style="stop-color:#406486"/>
			<stop  offset="0.8044" style="stop-color:#5591A6"/>
			<stop  offset="1" style="stop-color:#6ECACE"/>
		</linearGradient>
		<path style="opacity:0.7;fill:url(#SVGID_29_);" d="M226.2,288.5c0,0-7.5,1.7-10,2.3c-0.4,0.1-0.8,0.4-0.9,0.8
			c-0.7,1.8-2.5,7.5-1.2,15.9c1.7,10.2,1.2,17.1,1.2,17.1l-3.5,18c0,0-4.3,17.1-4,17.6c0.4,0.5,10,7.8,13,6.8c3-1,2-2.7,2-2.7
			s2.4,12.4,13.2,12.3c10.8-0.1,19.6-0.1,21.4-4.4c1.8-4.4-0.5-22.7-2.4-30c-1.9-7.3-6.4-21.7-6.4-21.7l15.8-17.5L251,292.5
			c0,0-3.2-6-4.6-6.8c-1.3-0.8-2-0.1-2-0.1L226.2,288.5z"/>
		<path style="fill:#F1F6FC;" d="M246.2,285.6c0,0,2.8,3.3-1.2,7.8c-2.4,2.8-6.6,8.8-10.2,15c-2.2,3.9-4.3,5.9-5.5,9.3
			c0,0-0.2-4-0.3-10.1c-0.1-5.8-0.2-11.8,0-13.3C229.5,291.3,243.2,284.1,246.2,285.6z"/>
		<path style="fill:#FCD1C6;" d="M235.9,295.7c0,0-1.4,0.9-1.9,0.8c-0.5-0.1-2.1-1.6-2.1-1.6s-3.9-0.1-4.3-1.7
			c-0.4-1.7-0.7-3.4-1.1-4.2c-0.4-0.9-2.1-5.1-2.1-6.8c0-1.7,0.1-4.7-0.7-6.3c-0.7-1.6-1.7-17.7,13.8-17.2
			c15.5,0.5,10.7,16.6,10.7,16.6s1.1,0.5,0.4,2.6c-0.7,2.1-0.8,2.3-1.2,3.3c-0.4,1-0.5,1.7-1.5,2.5l-0.3,1.9c0,0,0.7,2.9-1.2,5.8
			C242.6,294,235.9,295.7,235.9,295.7z"/>
		<path style="fill:#4B4A9F;" d="M215.8,290.9c0,0-1.7,0.2-7,13.8c-3,7.5-7.6,15.3-8.6,20.9c-1,5.6-0.4,11.6,0.7,12
			c1.1,0.4,20.4,7.6,26.4,9.9c0.3,0.1,0.7-0.1,0.8-0.4l1.7-9.3l-12-4.6c0,0-2.3-2.8-4.4-3.8c0,0,2.4-4.4,2.2-5.6
			c-0.2-1.2,0.2-13.7-1.2-18.8C212.9,299.9,215.8,290.9,215.8,290.9z"/>
		
			<linearGradient id="SVGID_30_" gradientUnits="userSpaceOnUse" x1="2174.8232" y1="306.3736" x2="2133.2937" y2="335.072" gradientTransform="matrix(1 0 0 1 -1934.4424 0)">
			<stop  offset="0" style="stop-color:#211C58"/>
			<stop  offset="8.509818e-02" style="stop-color:#23225B"/>
			<stop  offset="0.221" style="stop-color:#283063"/>
			<stop  offset="0.3907" style="stop-color:#314671"/>
			<stop  offset="0.5876" style="stop-color:#406486"/>
			<stop  offset="0.8044" style="stop-color:#5591A6"/>
			<stop  offset="1" style="stop-color:#6ECACE"/>
		</linearGradient>
		<path style="opacity:0.7;fill:url(#SVGID_30_);" d="M215.8,290.9c0,0-1.7,0.2-7,13.8c-3,7.5-7.6,15.3-8.6,20.9
			c-1,5.6-0.4,11.6,0.7,12c1.1,0.4,20.4,7.6,26.4,9.9c0.3,0.1,0.7-0.1,0.8-0.4l1.7-9.3l-12-4.6c0,0-2.3-2.8-4.4-3.8
			c0,0,2.4-4.4,2.2-5.6c-0.2-1.2,0.2-13.7-1.2-18.8C212.9,299.9,215.8,290.9,215.8,290.9z"/>
		<path style="fill:#FCD1C6;" d="M222.8,326.6c0,0-1.6-1.1-2.1-1.3c-0.4-0.2-2.6-0.9-3-1.1c-0.3-0.1-1.6,0-2.2,0
			c-0.2,0-0.4,0.2-0.5,0.4c-0.5,0.9-1.9,3.7-1.8,4.7c0,0,4,2.5,4.4,3.6l0.6,0.1C218.2,333.2,220.9,327.5,222.8,326.6z"/>
		<path style="fill:#282567;" d="M255.2,342.1c-0.5-1.7-1.1-3.9-1.7-6.2l-24.2,10.4c0,0,7.3,8.9,20,8.4c3.5-0.2,6-1.4,7.9-2.5
			C256.5,348.2,255.8,344.5,255.2,342.1z"/>
		<path style="fill:#282567;" d="M264.6,302.8c0,0-6.4,0.9-11.6,9.1c-5.2,8.2-8.9,17.7-8.9,17.7l-0.2,1.1c-0.5,2.8-3.4,4.4-6,3.2
			c-5.5-2.4-13.5-6.1-15-7.2c0,0-4.8,2.7-6.1,9c-1.1,5-0.8,5-0.8,5s21.5,10,29.8,10c8.3-0.1,18.9-27.4,20-33.1
			C266.9,311.9,268.2,304.4,264.6,302.8z"/>
		<path style="fill:#4B4A9F;" d="M264.6,302.8c0,0-6.4,0.9-11.6,9.1c-5.2,8.2-8.9,17.7-8.9,17.7l-0.2,1.1c-0.5,2.8-3.4,4.4-6,3.2
			c-5.5-2.4-13.5-6.1-15-7.2c0,0-4.8,2.7-6.1,9c-1.1,5-0.8,5-0.8,5s21.5,10,29.8,10c8.3-0.1,18.9-27.4,20-33.1
			C266.9,311.9,268.2,304.4,264.6,302.8z"/>
		
			<linearGradient id="SVGID_31_" gradientUnits="userSpaceOnUse" x1="2213.5442" y1="315.5244" x2="2153.6133" y2="343.6361" gradientTransform="matrix(1 0 0 1 -1934.4424 0)">
			<stop  offset="0" style="stop-color:#211C58"/>
			<stop  offset="8.509818e-02" style="stop-color:#23225B"/>
			<stop  offset="0.221" style="stop-color:#283063"/>
			<stop  offset="0.3907" style="stop-color:#314671"/>
			<stop  offset="0.5876" style="stop-color:#406486"/>
			<stop  offset="0.8044" style="stop-color:#5591A6"/>
			<stop  offset="1" style="stop-color:#6ECACE"/>
		</linearGradient>
		<path style="opacity:0.7;fill:url(#SVGID_31_);" d="M264.6,302.8c0,0-6.4,0.9-11.6,9.1c-5.2,8.2-8.9,17.7-8.9,17.7l-0.2,1.1
			c-0.5,2.8-3.4,4.4-6,3.2c-5.5-2.4-13.5-6.1-15-7.2c0,0-4.8,2.7-6.1,9c-1.1,5-0.8,5-0.8,5s21.5,10,29.8,10
			c8.3-0.1,18.9-27.4,20-33.1C266.9,311.9,268.2,304.4,264.6,302.8z"/>
		<path style="fill:#47419A;" d="M241,335.1c0,0,2.7,2.5,3.9,1.1c1.2-1.4,0.8-1.5,0.8-1.5s2.4,0,2.7-1.6c0.3-1.5,1.5-0.7,1.6-2.4
			c0.1-1.7-2-1.4-2-1.4L241,335.1z"/>
		<path style="fill:#FCD1C6;" d="M237.7,333.8c0,0,0.7-0.7,1.7-1.5c1-0.8,2.5-4.2,2.8-4.5c0.3-0.3,3.5-2.8,5.1-2.8
			c1.6,0,0.4,1.7,0,2c-0.4,0.2-1.9,1-1.9,1s-1.6,1.3-1.8,1.5c-0.2,0.2,4.4-0.3,5.1,0.1s0.6,1.6,0,1.9c-0.5,0.3-0.9,0.3-0.9,0.3
			s0.5,1.4-0.9,2c-1.4,0.6-1.7,0.3-1.7,0.3s-0.1,2.4-2.4,1.9L237.7,333.8z"/>
		<path style="fill:#AA8483;" d="M223.3,267.6c0,0-2,6.4,3.3,4.6c5.3-1.8,10.2-4.9,11.8-3.7c1.3,0.9,1.2,3.6,1.1,4.9
			c0,0.4,0.1,0.8,0.3,1.2l1.6,2.3c0.2,0.3,0.3,0.6,0.3,0.9l0.1,1.6c0,0.4,0.4,0.7,0.8,0.7l0.4,0c0.4,0,0.8-0.3,0.8-0.7l0.4-2.3
			c0,0,1.3-3.2,3.9-1.9c0,0,1.8-2.4,1.2-7.5c-0.6-5.1-2.9-10.4-12.9-11.2C226.5,255.6,223.3,267.6,223.3,267.6z"/>
		<path style="fill:#C4CBD5;" d="M238.6,301.3l-1.5-1.2c0,0-1.4,1.2-1.9,2.4c-0.5,1.2,0,5.1,0,5.1l-0.5,0.8l-0.6-1l-0.5-4.6
			c0,0,0.5-3.4,0.6-3.5c0-0.1,2.9,0.3,2.9,0.3S238.2,300.4,238.6,301.3z"/>
		<path style="fill:#C4CBD5;" d="M231.4,296.8c0,0-1.6,0.1-2.3,0.7c0,0,1.7,0.1,1.9,0.1S231.4,296.8,231.4,296.8z"/>
		<path style="fill:#282567;" d="M234.5,297.1l2.7,2.5c0,0-2.4,1.1-3,3.2c0,0-2.9,0.5-3.2-0.5c-0.3-1.1,0-3.7-0.3-4.9
			C230.3,296.2,234.5,297.1,234.5,297.1z"/>
		<path style="fill:#282567;" d="M231.1,302.3c0,0-0.5,2.2-1,3.1c-0.5,0.9-1.1,1.9-1.1,1.9l0.1,12.9c0,0,4.7-9.8,5.8-11.7
			c0,0-0.2-4.7-0.6-5.6C233.7,301.9,231.1,302.3,231.1,302.3z"/>
		<path style="fill:#E2B1A6;" d="M243.8,283.2c-3.1,9-11.9,11.6-11.9,11.6s1.6,1.5,2.1,1.6c0.5,0.1,1.9-0.8,1.9-0.8s6.7-1.6,8.6-4.5
			c1.9-2.8,1.2-5.8,1.2-5.8l0.3-1.9C244.6,284,243.8,283.2,243.8,283.2z"/>
		<path style="fill:#282567;" d="M250.9,293.7c0,0-1.2,4.2-1.4,4.4c-0.2,0.2-3.1-0.2-3.1-0.2l1.4,2.7c0,0-14.7,15.8-17.8,24.3
			c0,0,7-10.8,19.2-23.6l-1.7-2.6l3,0.6L250.9,293.7z"/>
		<path style="fill:#282567;" d="M226.7,290l-0.8,0.9l0.9,0.9l-2.7,2.5c0,0-0.8,17.3,2.5,28.7c0,0-4.5-10.5-3.5-29.2l2.9-2l-1-0.9
			L226.7,290z"/>
		<path style="fill:#211C58;" d="M236,385.4c0,0,0,0,0.1,0.1l-3.8-4.1c1.8,2.5-0.3,13.9-0.5,16.5c-0.2,2.6,2,8,2.9,14.3
			c0.8,6.3-0.9,15.3-0.9,15.3c1.1-0.6,2-1.7,2.3-3.3c1.3-5.9,0.8-16.9-0.6-21.5C234.1,398.1,236,385.4,236,385.4z"/>
		<path style="fill:#936E6E;" d="M243,280.1c0.4,0,0.8-0.3,0.8-0.7l0.4-2.3c0,0,1.3-3.2,3.9-1.9c0,0,1.7-2.3,1.2-7.1
			c-2.9,4.4-9.5,6.5-9.5,6.5l1.6,2.3c0.2,0.3,0.3,0.6,0.3,0.9l0.1,1.6c0,0.4,0.4,0.7,0.8,0.7L243,280.1z"/>
	</g>
</g>
</svg>
