<?xml version="1.0" encoding="utf-8"?>
<!-- Generator: Adobe Illustrator 17.0.0, SVG Export Plug-In . SVG Version: 6.00 Build 0)  -->
<!DOCTYPE svg PUBLIC "-//W3C//DTD SVG 1.0//EN" "http://www.w3.org/TR/2001/REC-SVG-20010904/DTD/svg10.dtd" [
	<!ENTITY st0 "fill:#FFC20E;">
	<!ENTITY st1 "fill:#ED1C24;">
	<!ENTITY st2 "fill:#F7941E;">
	<!ENTITY st3 "fill:#FFCF01;">
]>
<svg version="1.0" id="Layer_1" xmlns="http://www.w3.org/2000/svg" xmlns:xlink="http://www.w3.org/1999/xlink" x="0px" y="0px"
	 width="100px" height="65px" viewBox="0 0 100 65" style="enable-background:new 0 0 100 65;" xml:space="preserve">
<g>
	<path style="&st0;" d="M35.071,25.059h60.997c2.174,0,3.937-1.83,3.937-4.088c0-2.258-1.763-4.088-3.937-4.088H35.071
		c-2.174,0-3.937,1.83-3.937,4.088C31.134,23.229,32.896,25.059,35.071,25.059z"/>
</g>
<g>
	<path style="&st1;" d="M47.461,49.606h39.948c2.174,0,3.937-1.83,3.937-4.088c0-2.258-1.763-4.088-3.937-4.088H47.461
		c-2.174,0-3.937,1.83-3.937,4.088C43.524,47.776,45.286,49.606,47.461,49.606z"/>
</g>
<g>
	<path style="&st2;" d="M41.763,36.985H91.87c2.174,0,3.937-1.83,3.937-4.088s-1.763-4.088-3.937-4.088H41.763
		c-2.174,0-3.937,1.83-3.937,4.088S39.589,36.985,41.763,36.985z"/>
</g>
<g>
	<path style="&st3;" d="M34.407,25.001l56.939,11.895c2.143,0.381,4.178-1.115,4.544-3.34c0.367-2.225-1.073-4.338-3.217-4.718
		L35.735,16.943c-2.143-0.381-4.178,1.115-4.544,3.34C30.824,22.508,32.264,24.62,34.407,25.001z"/>
</g>
<g>
	<path style="&st2;" d="M41.12,36.927l45.849,12.591c2.143,0.381,4.178-1.115,4.544-3.34c0.367-2.225-1.073-4.338-3.217-4.718
		L42.447,28.869c-2.143-0.381-4.178,1.115-4.544,3.34S38.976,36.546,41.12,36.927z"/>
</g>
<g>
	<path d="M4.103,8.175h25.068c2.174,0,3.937-1.83,3.937-4.088S31.345,0,29.171,0H4.103C1.929,0,0.167,1.83,0.167,4.088
		S1.929,8.175,4.103,8.175z"/>
</g>
<g>
	<path d="M26.555,6.779l4.704,5.706c1.432,1.699,3.919,1.871,5.555,0.385c1.636-1.487,1.802-4.069,0.371-5.768l-4.704-5.706
		c-1.432-1.699-3.919-1.871-5.555-0.385C25.289,2.498,25.124,5.08,26.555,6.779z"/>
</g>
<g>
	<ellipse cx="56.829" cy="58.319" rx="6.3" ry="6.541"/>
</g>
<g>
	<ellipse cx="78.716" cy="58.319" rx="6.3" ry="6.541"/>
</g>
</svg>
